<svg width="30" height="30" viewBox="0 0 30 30" fill="none" xmlns="http://www.w3.org/2000/svg">
<mask id="mask0_995_934" style="mask-type:luminance" maskUnits="userSpaceOnUse" x="0" y="0" width="30" height="30">
<path d="M30 0H0V30H30V0Z" fill="white"/>
</mask>
<g mask="url(#mask0_995_934)">
<path d="M30 0H0V30H30V0Z" fill="white"/>
<path d="M11.8747 23.75C11.1192 23.75 8.76518 23.75 7.02114 23.75C6.0919 23.75 5.48866 22.7721 5.90423 21.941L6.97185 19.8057C7.31899 19.1115 7.49971 18.3468 7.49971 17.5705C7.49971 16.6084 7.49971 15.1792 7.49971 13.75C7.49971 11.25 8.74971 6.25 14.9997 6.25C21.2497 6.25 22.4997 11.25 22.4997 13.75C22.4997 15.1792 22.4997 16.6084 22.4997 17.5705C22.4997 18.3468 22.6805 19.1115 23.0276 19.8057L24.0952 21.941C24.5107 22.7721 23.9063 23.75 22.9772 23.75H18.1247M11.8747 23.75C11.8747 26.25 13.1247 27.5 14.9997 27.5C16.8747 27.5 18.1247 26.25 18.1247 23.75M11.8747 23.75C13.8273 23.75 18.1247 23.75 18.1247 23.75" stroke="black" stroke-width="1.5" stroke-linejoin="round"/>
<path d="M15 6.25V3.75" stroke="black" stroke-width="1.5" stroke-linecap="round" stroke-linejoin="round"/>
</g>
</svg>
