<svg width="30" height="30" viewBox="0 0 30 30" fill="none" xmlns="http://www.w3.org/2000/svg">
<path opacity="0.4" d="M15.1504 15.975C15.0629 15.9625 14.9504 15.9625 14.8504 15.975C12.6504 15.9 10.9004 14.1 10.9004 11.8875C10.9004 9.62498 12.7254 7.78748 15.0004 7.78748C17.2629 7.78748 19.1004 9.62498 19.1004 11.8875C19.0879 14.1 17.3504 15.9 15.1504 15.975Z" stroke="#292D32" stroke-width="1.75" stroke-linecap="round" stroke-linejoin="round"/>
<path opacity="0.34" d="M23.4252 24.2251C21.2002 26.2626 18.2502 27.5001 15.0002 27.5001C11.7502 27.5001 8.8002 26.2626 6.5752 24.2251C6.7002 23.0501 7.4502 21.9001 8.7877 21.0001C12.2127 18.7251 17.8127 18.7251 21.2127 21.0001C22.5502 21.9001 23.3002 23.0501 23.4252 24.2251Z" stroke="#292D32" stroke-width="1.75" stroke-linecap="round" stroke-linejoin="round"/>
<path d="M15 27.5C21.9035 27.5 27.5 21.9035 27.5 15C27.5 8.09644 21.9035 2.5 15 2.5C8.09644 2.5 2.5 8.09644 2.5 15C2.5 21.9035 8.09644 27.5 15 27.5Z" stroke="#292D32" stroke-width="2" stroke-linecap="round" stroke-linejoin="round"/>
</svg>
