<svg width="26" height="26" viewBox="0 0 26 26" fill="none" xmlns="http://www.w3.org/2000/svg">
<g clip-path="url(#clip0_995_908)">
<path d="M17.3412 21.1441C16.1783 21.1441 15.2744 22.096 15.2744 23.2555C15.2744 24.415 16.2291 25.3669 17.3412 25.3669C18.4533 25.3669 19.408 24.415 19.408 23.2555C19.408 22.096 18.4533 21.1441 17.3412 21.1441ZM17.3412 24.3087C16.7572 24.3087 16.3357 23.8327 16.3357 23.2505C16.3357 22.6682 16.8131 22.1922 17.3412 22.1922C17.8693 22.1922 18.3467 22.6682 18.3467 23.2505C18.3467 23.8327 17.8693 24.3087 17.3412 24.3087Z" fill="black"/>
<path d="M6.06289 21.1441C4.9 21.1441 3.99609 22.096 3.99609 23.2555C3.99609 24.415 4.95078 25.3669 6.06289 25.3669C7.22578 25.3669 8.12969 24.415 8.12969 23.2555C8.12969 22.096 7.175 21.1441 6.06289 21.1441ZM6.06289 24.3087C5.47891 24.3087 5.05742 23.8327 5.05742 23.2505C5.05742 22.6682 5.53477 22.1922 6.06289 22.1922C6.64688 22.1922 7.06836 22.6682 7.06836 23.2505C7.06836 23.8378 6.59609 24.3087 6.06289 24.3087Z" fill="black"/>
<path d="M22.3182 0.556957L21.4955 3.77719H0.71582L4.5498 15.1037C3.26504 15.291 2.30527 16.3746 2.30527 17.767C2.30527 19.2961 3.46816 20.5112 4.95098 20.5112H19.3525V19.5087H4.95098C4.05215 19.5087 3.36152 18.7695 3.36152 17.8176C3.36152 16.8657 4.10293 16.1265 4.95098 16.1265H19.3525H19.4033L23.1611 1.61011H25.2787V0.556957H22.3182ZM18.6111 15.0733H5.6416L2.19863 4.83034H21.2061L18.6111 15.0733Z" fill="black"/>
<path d="M8.50078 7.31134H7.43945V13.2759H8.50078V7.31134Z" fill="black"/>
<path d="M12.2635 7.31134H11.2021V13.2759H12.2635V7.31134Z" fill="black"/>
<path d="M16.0213 7.31134H14.96V13.2759H16.0213V7.31134Z" fill="black"/>
</g>
<defs>
<clipPath id="clip0_995_908">
<rect width="26" height="25.9239" fill="white"/>
</clipPath>
</defs>
</svg>
