<svg width="20" height="24" viewBox="0 0 20 24" fill="none" xmlns="http://www.w3.org/2000/svg">
<path d="M10.4304 0.0787734C10.6686 -0.0381947 10.9539 -0.0252903 11.1823 0.120089L19.6437 5.50461C19.8611 5.64295 19.9948 5.88104 19.9998 6.13861C20.0048 6.39625 19.8804 6.63945 19.6685 6.78614L9.66869 13.7091C9.41424 13.8853 9.0787 13.8918 8.8176 13.7256L0.356209 8.3411C0.138882 8.20275 0.00517589 7.96467 0.000145222 7.70709C-0.0048555 7.44946 0.119565 7.20626 0.331419 7.05957L10.3312 0.136615L10.4304 0.0787734ZM2.15981 7.66503L9.21272 12.1526L17.8394 6.17993L10.7865 1.69233L2.15981 7.66503Z" fill="#7E00A7"/>
<path d="M18.5333 5.8284C18.713 5.44345 19.1707 5.27694 19.5557 5.45657C19.9407 5.63621 20.1072 6.09397 19.9275 6.47893L19.3889 7.63276C19.3832 7.64514 19.3773 7.65751 19.3709 7.66957C18.9206 8.51381 19.0818 9.53264 19.7743 10.2251C19.9356 10.3864 20.0171 10.6109 19.9966 10.8381C19.9762 11.0652 19.8559 11.2716 19.6684 11.4015L9.66855 18.3244C9.41409 18.5006 9.07856 18.5071 8.81745 18.341L0.356063 12.9564C0.134242 12.8152 0 12.5704 0 12.3074V7.6921C0 7.26728 0.34439 6.92289 0.769217 6.92289C1.19404 6.92289 1.53843 7.26728 1.53843 7.6921V11.8845L9.21258 16.768L18.1239 10.5985C17.4646 9.51688 17.3827 8.15923 17.9947 6.98148L18.5333 5.8284Z" fill="#7E00A7"/>
<path d="M18.5333 10.4437C18.713 10.0588 19.1707 9.89227 19.5557 10.0719C19.9407 10.2515 20.1072 10.7093 19.9275 11.0943L19.3889 12.2481C19.3832 12.2605 19.3773 12.2728 19.3709 12.2849C18.9206 13.1291 19.0818 14.148 19.7743 14.8404C19.9356 15.0017 20.0171 15.2262 19.9966 15.4534C19.9762 15.6806 19.8559 15.887 19.6684 16.0168L9.66855 22.9398C9.41409 23.1159 9.07856 23.1224 8.81745 22.9563L0.356063 17.5718C0.134242 17.4306 0 17.1857 0 16.9227V12.3074C0 11.8826 0.34439 11.5382 0.769217 11.5382C1.19404 11.5382 1.53843 11.8826 1.53843 12.3074V16.4998L9.21258 21.3833L18.1239 15.2138C17.4646 14.1322 17.3827 12.7746 17.9947 11.5968L18.5333 10.4437Z" fill="#7E00A7"/>
</svg>
