<svg width="18" height="15" viewBox="0 0 18 15" fill="none" xmlns="http://www.w3.org/2000/svg">
<path fill-rule="evenodd" clip-rule="evenodd" d="M8.57143 11.7857C6.79661 11.7857 5.35714 10.3462 5.35714 8.57143C5.35714 6.79661 6.79661 5.35714 8.57143 5.35714C10.3463 5.35714 11.7857 6.79661 11.7857 8.57143C11.7857 10.3462 10.3463 11.7857 8.57143 11.7857ZM8.57143 4.28571C6.20464 4.28571 4.28571 6.20464 4.28571 8.57143C4.28571 10.9382 6.20464 12.8571 8.57143 12.8571C10.9382 12.8571 12.8571 10.9382 12.8571 8.57143C12.8571 6.20464 10.9382 4.28571 8.57143 4.28571ZM16.0714 12.8571C16.0714 13.4486 15.5914 13.9286 15 13.9286H2.14286C1.55143 13.9286 1.07143 13.4486 1.07143 12.8571V4.28571C1.07143 3.69429 1.55143 3.21429 2.14286 3.21429H4.28571L4.82143 2.14286C5.20018 1.51982 5.30143 1.07143 5.89286 1.07143H11.25C11.8414 1.07143 11.9427 1.51982 12.3214 2.14286L12.8571 3.21429H15C15.5914 3.21429 16.0714 3.69429 16.0714 4.28571V12.8571ZM15 2.14286H13.3929L12.8571 1.07143C12.5416 0.448393 12.3771 0 11.7857 0H5.35714C4.76571 0 4.56964 0.511071 4.28571 1.07143L3.75 2.14286H2.14286C0.959464 2.14286 0 3.10232 0 4.28571V12.8571C0 14.0405 0.959464 15 2.14286 15H15C16.1834 15 17.1429 14.0405 17.1429 12.8571V4.28571C17.1429 3.10232 16.1834 2.14286 15 2.14286Z" fill="white"/>
</svg>
