<svg width="15" height="20" viewBox="0 0 15 20" fill="none" xmlns="http://www.w3.org/2000/svg">
<path d="M7.53418 0.5C9.75501 0.500055 11.4749 1.25522 12.6465 2.59766C13.8258 3.94906 14.5 5.95419 14.5 8.54102C14.5 10.8174 13.9725 13.2454 13.1104 15.4014L12.999 15.6807L13.1934 15.9102C13.6168 16.4097 13.9566 17.0677 14.1611 17.7979L14.2402 18.1143L14.3721 18.7412H14.373C14.4147 18.9595 14.3799 19.1061 14.2539 19.2822C14.1407 19.4405 14.0178 19.5 13.8457 19.5H1.1543C0.980938 19.5 0.843242 19.4344 0.725586 19.3203C0.646501 19.2013 0.608731 19.0946 0.610352 18.9648L0.626953 18.8125L0.760742 18.1816L0.766602 18.1504C0.888283 17.3217 1.25209 16.5651 1.78711 16.0039L2.00879 15.7705L1.88965 15.4727C1.02786 13.3177 0.500033 10.8184 0.5 8.6123C0.5 6.02819 1.19011 4.00356 2.3877 2.63281C3.57803 1.27063 5.31647 0.5 7.53418 0.5ZM3.57227 8.46973C3.57227 9.88784 4.31067 11.3361 5.55762 12.0166C5.63964 12.0762 5.67676 12.1436 5.67676 12.2422C5.67668 13.595 4.85992 14.6911 3.69629 15.1182C2.30306 15.6081 1.3817 16.748 1.0752 18.1758L1.00684 18.4609L0.993164 18.5176V19.2188H14.1396L13.9932 18.6025L13.9248 18.3184C13.6149 16.8761 12.6166 15.7463 11.3047 15.2607L11.2959 15.2578L11.0752 15.1699C9.99508 14.6906 9.3234 13.6028 9.32324 12.3848C9.32324 12.2833 9.36214 12.2142 9.44922 12.1533L9.44824 12.1523C10.2055 11.67 10.8198 10.948 11.1289 10.0566L11.3291 9.47754L10.7207 9.39746C8.10298 9.05425 5.90138 7.95859 4.42676 6.47949L3.57227 5.62305V8.46973Z" fill="#7E00A7" stroke="#7E00A7"/>
</svg>
