<svg width="19" height="20" viewBox="0 0 19 20" fill="none" xmlns="http://www.w3.org/2000/svg">
<path d="M8.27441 1.79785C9.19193 0.84636 10.51 0.393437 11.8408 0.520508C14.0211 0.77838 15.6698 2.63492 15.6699 4.80371V6.44434C15.6699 6.53922 15.6403 6.58282 15.6201 6.60254C15.5984 6.62353 15.5449 6.6582 15.4326 6.6582C15.1028 6.65829 14.787 6.7665 14.5508 6.99512C14.313 7.22524 14.1963 7.53943 14.1963 7.87207C14.1961 9.32949 13.4083 10.6824 12.1982 11.5283L11.9473 11.7031L11.9893 12.0068C12.1654 13.2842 13.1283 14.3697 14.4971 14.7041V14.7051C16.5368 15.2315 18.0804 16.8054 18.4814 18.7461C18.5299 18.9814 18.4733 19.1865 18.417 19.2773C18.295 19.4287 18.1511 19.4999 17.9395 19.5H1.20703C1.0068 19.5 0.837809 19.4357 0.626953 19.2402C0.506052 19.0756 0.477107 18.9423 0.517578 18.7461C0.918685 16.8049 2.3885 15.3027 4.42773 14.7764L4.42676 14.7754C5.78389 14.4443 6.83353 13.3666 7.00977 12.002L7.04785 11.7109L6.81152 11.5361C5.68116 10.6994 4.94714 9.34498 4.87695 7.93164V5.01758C4.87705 3.94989 5.32644 3.04553 6.12891 2.50781L6.14062 2.50098L6.15137 2.49219C6.60675 2.14938 7.03806 1.97631 7.48828 1.94434V5.66016C7.48816 5.71062 7.42888 5.79841 7.35449 5.81641L7.33008 5.82227L7.30664 5.83008L6.49512 6.11621C5.78162 6.33008 5.27755 7.01416 5.27734 7.72852C5.27734 9.19245 6.10896 10.5575 7.34863 11.2871V11.2881C7.45575 11.3572 7.48818 11.4261 7.48828 11.5098C7.48828 13.1996 6.32451 14.7177 4.5498 15.1631L4.54102 15.165L4.53223 15.168C2.91521 15.6375 1.59515 16.82 1.09766 18.4248L0.897461 19.0732H18.1758L17.9746 18.4248C17.4804 16.8306 16.1634 15.5584 14.4395 15.1611L14.4326 15.1592L14.1104 15.0752C12.534 14.592 11.5107 13.1682 11.5107 11.5811C11.5109 11.4974 11.5433 11.4285 11.6504 11.3594L11.6494 11.3584C12.8793 10.6355 13.7215 9.34683 13.7217 7.87207C13.7217 7.5861 13.7794 7.35639 13.8535 7.06934L13.9814 6.57324L13.4824 6.45703C11.4551 5.98328 9.64271 4.83469 8.38965 3.15039L7.49219 1.94434C7.61517 1.93583 7.73948 1.93599 7.86621 1.94824L8.10645 1.97168L8.27441 1.79785Z" fill="#7E00A7" stroke="#7E00A7"/>
</svg>
