<svg width="21" height="21" viewBox="0 0 21 21" fill="none" xmlns="http://www.w3.org/2000/svg">
<path d="M10.278 10.65C10.2033 10.6408 10.1072 10.6408 10.0219 10.65C8.14383 10.595 6.6499 9.27595 6.6499 7.65457C6.6499 5.99655 8.20785 4.64999 10.1499 4.64999C12.0813 4.64999 13.6499 5.99655 13.6499 7.65457C13.6392 9.27595 12.156 10.595 10.278 10.65Z" stroke="#7E00A7" stroke-width="1.3" stroke-linecap="round" stroke-linejoin="round"/>
<path d="M16.6499 17.2555C14.9333 18.7452 12.6573 19.65 10.1499 19.65C7.64249 19.65 5.36652 18.7452 3.6499 17.2555C3.74634 16.3964 4.32498 15.5556 5.35688 14.8975C7.99931 13.2342 12.3198 13.2342 14.9429 14.8975C15.9748 15.5556 16.5535 16.3964 16.6499 17.2555Z" stroke="#7E00A7" stroke-width="1.3" stroke-linecap="round" stroke-linejoin="round"/>
<path d="M10.1499 19.65C15.3966 19.65 19.6499 15.3967 19.6499 10.15C19.6499 4.90329 15.3966 0.649994 10.1499 0.649994C4.90319 0.649994 0.649902 4.90329 0.649902 10.15C0.649902 15.3967 4.90319 19.65 10.1499 19.65Z" stroke="#7E00A7" stroke-width="1.3" stroke-linecap="round" stroke-linejoin="round"/>
</svg>
