<svg width="20" height="27" viewBox="0 0 20 27" fill="none" xmlns="http://www.w3.org/2000/svg">
<path d="M12.5631 22.8333C12.5631 24.4442 11.3037 25.75 9.75001 25.75C8.19633 25.75 6.93688 24.4442 6.93688 22.8333M9.75001 2.41667C5.67172 2.41667 2.36561 5.77453 2.36561 9.91667V12.0965C2.36561 13.4073 2.10345 14.7047 1.59501 15.9095L0.884448 17.5935C0.42038 18.6932 1.21466 19.9167 2.39275 19.9167H17.1073C18.2854 19.9167 19.0796 18.6932 18.6155 17.5935L17.905 15.9095C17.3966 14.7047 17.1344 13.4073 17.1344 12.0965V9.91667C17.1344 5.77453 13.8283 2.41667 9.75001 2.41667ZM9.75001 2.41667V0.75" stroke="black" stroke-width="1.5" stroke-linecap="round" stroke-linejoin="round"/>
</svg>
