<svg width="5" height="10" viewBox="0 0 5 10" fill="none" xmlns="http://www.w3.org/2000/svg">
<path d="M5 0.273455L4.99769 0.261455C4.99604 0.241091 4.99242 0.222546 4.98714 0.204727L4.98747 0.206545C4.98418 0.188364 4.97989 0.172364 4.97462 0.156727L4.97528 0.158545C4.96737 0.142545 4.9588 0.128727 4.94924 0.116L4.94956 0.116364C4.94033 0.100727 4.93078 0.0872728 4.9199 0.0745455C4.90968 0.065091 4.89814 0.0567273 4.88594 0.0490909L4.88463 0.0483637C4.87111 0.0374546 4.85562 0.0276364 4.83913 0.0196364L4.83749 0.0189091L4.82859 0.0134546C4.81771 0.0109092 4.80518 0.00945461 4.792 0.00872733C4.78079 0.00509097 4.76694 0.00181818 4.75343 0H4.75244L4.74189 0.00254553C4.72376 0.00436371 4.70695 0.00836365 4.6908 0.0141818L4.69244 0.0138182C4.67563 0.0174546 4.6608 0.0221818 4.64695 0.0283637L4.6486 0.0276364C4.63443 0.0363636 4.62223 0.0454546 4.61102 0.0556364L4.61135 0.0552728C4.59685 0.0654546 4.58432 0.0763637 4.57278 0.0887273C4.56454 0.1 4.55696 0.112364 4.55004 0.125455L4.54938 0.126909C4.53916 0.142182 4.53026 0.159273 4.52334 0.177455L4.52268 0.179273L4.51773 0.189091L3.50936 3.61164H0.246901C0.11043 3.61164 0 3.73382 0 3.88436C0 3.97455 0.0398866 4.05491 0.1012 4.10436L0.101859 4.10473L2.7413 6.22036L1.73292 9.64291C1.72534 9.668 1.72073 9.69709 1.72073 9.72727C1.72073 9.87782 1.83149 10 1.96796 10C2.02235 10 2.07278 9.98073 2.11366 9.94764L2.113 9.948L4.89781 7.71564C4.90342 7.71127 4.90605 7.70473 4.911 7.69964C4.93407 7.67564 4.95385 7.64836 4.96967 7.61855L4.97066 7.61673C4.98286 7.58691 4.99209 7.55273 4.99604 7.51673V7.51491C4.99637 7.508 4.99967 7.50182 4.99967 7.49455L5 0.273455Z" fill="#F9A60C"/>
</svg>
