<svg width="10" height="9" viewBox="0 0 10 9" fill="none" xmlns="http://www.w3.org/2000/svg">
<path d="M4.58683 0.486222C4.71773 0.209062 4.78321 0.0704826 4.87436 0.0278077C4.95353 -0.00926925 5.04648 -0.00926925 5.12565 0.0278077C5.2168 0.0704826 5.28228 0.209062 5.41318 0.486222L6.45586 2.69384C6.49459 2.77577 6.51393 2.81674 6.5439 2.84811C6.57036 2.87587 6.60276 2.89807 6.6389 2.91327C6.67978 2.93045 6.72705 2.93516 6.82159 2.94457L9.36853 3.19827C9.68829 3.23012 9.84815 3.24604 9.91934 3.31466C9.98114 3.37426 10.0099 3.45772 9.99697 3.54024C9.98216 3.63523 9.86273 3.73678 9.62389 3.93994L7.72133 5.55803C7.65076 5.61806 7.61542 5.64811 7.59309 5.68466C7.5733 5.71705 7.56091 5.75296 7.55679 5.79011C7.55209 5.8321 7.56193 5.87597 7.58167 5.96375L8.11307 8.32813C8.1798 8.62499 8.21316 8.77339 8.166 8.85846C8.125 8.93242 8.0498 8.98397 7.96266 8.9979C7.86235 9.0139 7.72308 8.93813 7.44454 8.78652L5.22601 7.57891C5.14369 7.53408 5.10252 7.51172 5.05875 7.50291C5.02002 7.49518 4.97999 7.49518 4.94126 7.50291C4.89749 7.51172 4.85633 7.53408 4.774 7.57891L2.55548 8.78652C2.27695 8.93813 2.13769 9.0139 2.03737 8.9979C1.95023 8.98397 1.875 8.93242 1.83404 8.85846C1.78689 8.77339 1.82024 8.62499 1.88696 8.32813L2.41834 5.96375C2.43807 5.87597 2.44793 5.8321 2.44325 5.79011C2.4391 5.75296 2.42674 5.71705 2.40695 5.68466C2.38458 5.64811 2.34928 5.61806 2.27867 5.55803L0.376154 3.93994C0.137304 3.73678 0.017876 3.63523 0.00302737 3.54024C-0.00986481 3.45772 0.0188656 3.37426 0.0806915 3.31466C0.15187 3.24604 0.31175 3.23012 0.63151 3.19827L3.17845 2.94457C3.27298 2.93516 3.32024 2.93045 3.36111 2.91327C3.39727 2.89807 3.42965 2.87587 3.45614 2.84811C3.48608 2.81674 3.50543 2.77577 3.54414 2.69384L4.58683 0.486222Z" fill="#F9A60C"/>
</svg>
