<svg width="23" height="22" viewBox="0 0 23 22" fill="none" xmlns="http://www.w3.org/2000/svg">
<path d="M10.5497 1.18854C10.8508 0.511041 11.0014 0.172291 11.211 0.0679745C11.3931 -0.0226582 11.6069 -0.0226582 11.789 0.0679745C11.9986 0.172291 12.1492 0.511041 12.4503 1.18854L14.8485 6.58493C14.9376 6.78521 14.982 6.88536 15.051 6.96204C15.1118 7.0299 15.1864 7.08418 15.2695 7.12133C15.3635 7.16333 15.4722 7.17484 15.6897 7.19785L21.5476 7.81799C22.2831 7.89584 22.6507 7.93477 22.8145 8.1025C22.9566 8.2482 23.0227 8.45221 22.993 8.65393C22.959 8.88612 22.6843 9.13436 22.1349 9.63096L17.7591 13.5863C17.5968 13.733 17.5155 13.8065 17.4641 13.8958C17.4186 13.975 17.3901 14.0628 17.3806 14.1536C17.3698 14.2563 17.3924 14.3635 17.4378 14.5781L18.6601 20.3576C18.8135 21.0833 18.8903 21.4461 18.7818 21.654C18.6875 21.8348 18.5145 21.9608 18.3141 21.9949C18.0834 22.034 17.7631 21.8488 17.1225 21.4782L12.0198 18.5262C11.8305 18.4166 11.7358 18.362 11.6351 18.3405C11.5461 18.3215 11.454 18.3215 11.3649 18.3405C11.2642 18.362 11.1695 18.4166 10.9802 18.5262L5.8776 21.4782C5.23698 21.8488 4.91668 22.034 4.68595 21.9949C4.48553 21.9608 4.3125 21.8348 4.21829 21.654C4.10984 21.4461 4.18656 21.0833 4.34001 20.3576L5.56219 14.5781C5.60756 14.3635 5.63024 14.2563 5.61947 14.1536C5.60994 14.0628 5.58149 13.975 5.53597 13.8958C5.48454 13.8065 5.40333 13.733 5.24094 13.5863L0.865155 9.63096C0.315799 9.13436 0.0411148 8.88612 0.00696296 8.65393C-0.0226891 8.45221 0.0433908 8.2482 0.185591 8.1025C0.349301 7.93477 0.717025 7.89584 1.45247 7.81799L7.31043 7.19785C7.52785 7.17484 7.63655 7.16333 7.73055 7.12133C7.81372 7.08418 7.88819 7.0299 7.94913 6.96204C8.01799 6.88536 8.0625 6.78521 8.15152 6.58493L10.5497 1.18854Z" fill="#F9A60C"/>
</svg>
