<svg width="25" height="25" viewBox="0 0 25 25" fill="none" xmlns="http://www.w3.org/2000/svg">
<path d="M8.20312 22.2656V23.6328H7.42188V22.2656C7.42225 22.1111 7.39208 21.9581 7.33308 21.8153C7.27409 21.6725 7.18744 21.5428 7.07813 21.4336C6.9845 21.3438 6.87782 21.2688 6.76172 21.2109C6.72832 21.2206 6.69441 21.2284 6.66016 21.2344C6.62676 21.244 6.59285 21.2519 6.55859 21.2578C6.46092 21.2781 6.36147 21.2885 6.26172 21.2891H6.25C6.14897 21.2884 6.04823 21.2779 5.94922 21.2578H5.85547L5.75 21.2305C5.55281 21.3234 5.38545 21.4696 5.26676 21.6524C5.14807 21.8353 5.08274 22.0477 5.07812 22.2656V23.6328H4.29688V22.2656C4.29803 21.9797 4.36195 21.6975 4.48412 21.439C4.60629 21.1805 4.78373 20.9519 5.00391 20.7695C4.75763 20.5231 4.58995 20.2092 4.52206 19.8675C4.45416 19.5258 4.48911 19.1716 4.62248 18.8497C4.75586 18.5279 4.98166 18.2528 5.27135 18.0593C5.56104 17.8657 5.90161 17.7625 6.25 17.7625C6.59839 17.7625 6.93896 17.8657 7.22865 18.0593C7.51834 18.2528 7.74414 18.5279 7.87752 18.8497C8.01089 19.1716 8.04584 19.5258 7.97794 19.8675C7.91005 20.2092 7.74237 20.5231 7.49609 20.7695C7.54297 20.8047 7.58594 20.8437 7.62891 20.8828C7.9946 21.2504 8.20089 21.7471 8.20312 22.2656Z" fill="#7E00A7"/>
<path d="M8.20312 13.8672V15.2344H7.42188V13.8672C7.42225 13.7127 7.39208 13.5596 7.33308 13.4168C7.27409 13.274 7.18744 13.1443 7.07813 13.0351C6.9845 12.9454 6.87782 12.8703 6.76172 12.8125C6.72832 12.8221 6.69441 12.83 6.66016 12.8359C6.62676 12.8456 6.59285 12.8534 6.55859 12.8594C6.45709 12.8804 6.35367 12.8909 6.25 12.8906C6.14897 12.8899 6.04823 12.8795 5.94922 12.8594H5.85547L5.75 12.832C5.55281 12.925 5.38545 13.0711 5.26676 13.254C5.14807 13.4369 5.08274 13.6492 5.07812 13.8672V15.2344H4.29688V13.8672C4.29803 13.5813 4.36195 13.2991 4.48412 13.0406C4.60629 12.782 4.78373 12.5535 5.00391 12.3711C4.75763 12.1247 4.58995 11.8108 4.52206 11.469C4.45416 11.1273 4.48911 10.7732 4.62248 10.4513C4.75586 10.1295 4.98166 9.85438 5.27135 9.66084C5.56104 9.46731 5.90161 9.36401 6.25 9.36401C6.59839 9.36401 6.93896 9.46731 7.22865 9.66084C7.51834 9.85438 7.74414 10.1295 7.87752 10.4513C8.01089 10.7732 8.04584 11.1273 7.97794 11.469C7.91005 11.8108 7.74237 12.1247 7.49609 12.3711C7.54297 12.4062 7.58594 12.4453 7.62891 12.4844C7.9946 12.8519 8.20089 13.3487 8.20312 13.8672Z" fill="#7E00A7"/>
<path d="M8.20312 5.46874V6.83593H7.42188V5.46874C7.42225 5.31424 7.39208 5.16119 7.33308 5.0184C7.27409 4.87561 7.18744 4.74589 7.07813 4.63671C6.9845 4.54695 6.87782 4.47188 6.76172 4.41405C6.72832 4.42371 6.69441 4.43153 6.66016 4.43749C6.62676 4.44716 6.59285 4.45498 6.55859 4.46093C6.46092 4.48119 6.36147 4.49166 6.26172 4.49218H6.25C6.14897 4.49151 6.04823 4.48105 5.94922 4.46093H5.85547L5.75 4.43359C5.55281 4.52655 5.38545 4.67269 5.26676 4.85556C5.14807 5.03843 5.08274 5.25078 5.07812 5.46874V6.83593H4.29688V5.46874C4.29803 5.18282 4.36195 4.90063 4.48412 4.64212C4.60629 4.3836 4.78373 4.15507 5.00391 3.97265C4.75763 3.72623 4.58995 3.41232 4.52206 3.0706C4.45416 2.72889 4.48911 2.37472 4.62248 2.05287C4.75586 1.73102 4.98166 1.45594 5.27135 1.26241C5.56104 1.06887 5.90161 0.965576 6.25 0.965576C6.59839 0.965576 6.93896 1.06887 7.22865 1.26241C7.51834 1.45594 7.74414 1.73102 7.87752 2.05287C8.01089 2.37472 8.04584 2.72889 7.97794 3.0706C7.91005 3.41232 7.74237 3.72623 7.49609 3.97265C7.54297 4.0078 7.58594 4.04687 7.62891 4.08593C7.9946 4.45349 8.20089 4.95025 8.20312 5.46874Z" fill="#7E00A7"/>
<path d="M19.5312 10.9375H11.7188C11.4079 10.9375 11.1099 11.061 10.8901 11.2807C10.6703 11.5005 10.5469 11.7986 10.5469 12.1094V12.8906C10.5469 13.2014 10.6703 13.4995 10.8901 13.7193C11.1099 13.939 11.4079 14.0625 11.7188 14.0625H19.5312C19.8421 14.0625 20.1401 13.939 20.3599 13.7193C20.5797 13.4995 20.7031 13.2014 20.7031 12.8906V12.1094C20.7031 11.7986 20.5797 11.5005 20.3599 11.2807C20.1401 11.061 19.8421 10.9375 19.5312 10.9375ZM19.9219 12.8906C19.9219 12.9942 19.8807 13.0936 19.8075 13.1668C19.7342 13.2401 19.6349 13.2812 19.5312 13.2812H15.625V11.7188H19.5312C19.6349 11.7188 19.7342 11.7599 19.8075 11.8332C19.8807 11.9064 19.9219 12.0058 19.9219 12.1094V12.8906Z" fill="#7E00A7"/>
<path d="M19.5312 2.73438H11.7188C11.4079 2.73438 11.1099 2.85784 10.8901 3.07761C10.6703 3.29738 10.5469 3.59545 10.5469 3.90625V4.6875C10.5469 4.9983 10.6703 5.29637 10.8901 5.51614C11.1099 5.73591 11.4079 5.85938 11.7188 5.85938H19.5312C19.8421 5.85938 20.1401 5.73591 20.3599 5.51614C20.5797 5.29637 20.7031 4.9983 20.7031 4.6875V3.90625C20.7031 3.59545 20.5797 3.29738 20.3599 3.07761C20.1401 2.85784 19.8421 2.73438 19.5312 2.73438ZM19.9219 4.6875C19.9219 4.7911 19.8807 4.89046 19.8075 4.96371C19.7342 5.03697 19.6349 5.07812 19.5312 5.07812H14.4531V3.51562H19.5312C19.6349 3.51562 19.7342 3.55678 19.8075 3.63004C19.8807 3.70329 19.9219 3.80265 19.9219 3.90625V4.6875Z" fill="#7E00A7"/>
<path d="M19.5312 19.1406H11.7188C11.4079 19.1406 11.1099 19.2641 10.8901 19.4839C10.6703 19.7036 10.5469 20.0017 10.5469 20.3125V21.0938C10.5469 21.4046 10.6703 21.7026 10.8901 21.9224C11.1099 22.1422 11.4079 22.2656 11.7188 22.2656H19.5312C19.8421 22.2656 20.1401 22.1422 20.3599 21.9224C20.5797 21.7026 20.7031 21.4046 20.7031 21.0938V20.3125C20.7031 20.0017 20.5797 19.7036 20.3599 19.4839C20.1401 19.2641 19.8421 19.1406 19.5312 19.1406ZM19.9219 21.0938C19.9219 21.1974 19.8807 21.2967 19.8075 21.37C19.7342 21.4432 19.6349 21.4844 19.5312 21.4844H17.5781V19.9219H19.5312C19.6349 19.9219 19.7342 19.963 19.8075 20.0363C19.8807 20.1095 19.9219 20.2089 19.9219 20.3125V21.0938Z" fill="#7E00A7"/>
</svg>
