<svg width="32" height="32" viewBox="0 0 32 32" fill="none" xmlns="http://www.w3.org/2000/svg">
<path fill-rule="evenodd" clip-rule="evenodd" d="M16 1.66675C15.4478 1.66675 15 2.11447 15 2.66675V17.2969L12.7593 14.6826C12.3999 14.2633 11.7686 14.2147 11.3492 14.5742C10.9299 14.9335 10.8813 15.5649 11.2408 15.9842L15.2408 20.6509C15.4307 20.8725 15.7082 21.0001 16 21.0001C16.2919 21.0001 16.5694 20.8725 16.7592 20.6509L20.7592 15.9842C21.1187 15.5649 21.0702 14.9335 20.6508 14.5742C20.2315 14.2147 19.6002 14.2633 19.2408 14.6826L17 17.2969V2.66675C17 2.11447 16.5523 1.66675 16 1.66675Z" fill="#7E00A7"/>
<path d="M18.9993 12V12.5044C19.9775 12.1596 21.1076 12.3321 21.9516 13.0556C23.2096 14.1339 23.3553 16.0277 22.2771 17.2857L18.2771 21.9524C17.7071 22.6173 16.8751 23 15.9993 23C15.1235 23 14.2915 22.6173 13.7215 21.9524L9.72152 17.2857C8.64325 16.0277 8.78895 14.1339 10.0469 13.0556C10.8909 12.3321 12.0212 12.1596 12.9993 12.5044V12H10.666C6.89478 12 5.00916 12 3.83759 13.1716C2.66602 14.3432 2.66602 16.2288 2.66602 20V21.3333C2.66602 25.1045 2.66602 26.9901 3.83759 28.1617C5.00916 29.3333 6.89478 29.3333 10.666 29.3333H21.3327C25.1039 29.3333 26.9895 29.3333 28.1611 28.1617C29.3327 26.9901 29.3327 25.1045 29.3327 21.3333V20C29.3327 16.2288 29.3327 14.3432 28.1611 13.1716C26.9895 12 25.1039 12 21.3327 12H18.9993Z" fill="#7E00A7"/>
</svg>
