<svg width="18" height="17" viewBox="0 0 18 17" fill="none" xmlns="http://www.w3.org/2000/svg">
<path d="M16.7442 8.49999C16.7442 4.46061 13.277 1.18605 8.99999 1.18605C4.723 1.18605 1.25582 4.46061 1.25581 8.49999C1.25581 12.5394 4.723 15.8139 8.99999 15.814C13.277 15.814 16.7442 12.5394 16.7442 8.49999ZM18 8.49999C18 13.1944 13.9705 17 8.99999 17C4.02943 17 0 13.1944 0 8.49999C4.24831e-06 3.80558 4.02943 4.01021e-06 8.99999 0C13.9705 0 18 3.80557 18 8.49999Z" fill="#7E00A7"/>
<path d="M12.3223 8.23225L7.57424 10.9058L7.57424 5.55874L12.3223 8.23225Z" fill="#7E00A7"/>
</svg>
