<svg width="18" height="17" viewBox="0 0 18 17" fill="none" xmlns="http://www.w3.org/2000/svg">
<path d="M16.6856 8.41253C16.6856 4.41471 13.2305 1.17384 8.96849 1.17384C4.70647 1.17385 1.25142 4.41471 1.25142 8.41253C1.25142 12.4103 4.70647 15.6512 8.96849 15.6512C13.2305 15.6512 16.6856 12.4103 16.6856 8.41253ZM17.937 8.41253C17.937 13.0586 13.9217 16.8251 8.96849 16.8251C4.01533 16.8251 0 13.0586 0 8.41253C4.23345e-06 3.76642 4.01533 3.96895e-06 8.96849 0C13.9216 0 17.937 3.76642 17.937 8.41253Z" fill="#7E00A7"/>
<path d="M8.54297 5.37047C8.54297 5.05934 8.79393 4.80713 9.1035 4.80713C9.41307 4.80713 9.66403 5.05934 9.66403 5.37047V8.14159L11.3683 9.8544C11.5872 10.0744 11.5872 10.4311 11.3683 10.6511C11.1494 10.8711 10.7945 10.8711 10.5756 10.6511L8.70714 8.77328C8.60203 8.66763 8.54297 8.52434 8.54297 8.37494V5.37047Z" fill="#7E00A7"/>
</svg>
