<svg width="23" height="23" viewBox="0 0 23 23" fill="none" xmlns="http://www.w3.org/2000/svg">
<path d="M23 11.5015C22.9997 13.7759 22.325 15.9991 21.0612 17.8901C19.7974 19.7811 18.0012 21.2548 15.8999 22.125C13.7985 22.9952 11.4863 23.2227 9.25557 22.7789C7.02489 22.335 4.97592 21.2396 3.36776 19.6312C1.7596 18.0229 0.66448 15.9737 0.220868 13.743C-0.222744 11.5123 0.00507904 9.20007 0.875529 7.0988C1.74598 4.99754 3.21996 3.20157 5.1111 1.938C7.00223 0.674427 9.22558 1.81435e-08 11.5 0C14.5497 -2.43283e-08 17.4746 1.2114 19.6312 3.36776C21.7878 5.52411 22.9996 8.44881 23 11.4985V11.5015ZM18.744 12.5429L12.1987 6.00057C11.657 5.51411 10.9636 5.23027 10.2363 5.1973L6.40874 5.23506C6.10204 5.24028 5.80934 5.36434 5.5923 5.58111C5.37526 5.79788 5.25084 6.09042 5.24523 6.39712L5.20021 10.2377C5.23128 10.9651 5.51363 11.6591 5.99912 12.2016L12.5429 18.744C12.7591 18.959 13.0515 19.0797 13.3564 19.0797C13.6612 19.0797 13.9537 18.959 14.1698 18.744L18.7425 14.1684C18.9571 13.9523 19.0775 13.6602 19.0775 13.3557C19.0775 13.0512 18.9571 12.759 18.7425 12.5429H18.744ZM7.46767 6.66439C7.30851 6.66439 7.15292 6.71159 7.02059 6.80001C6.88825 6.88844 6.78511 7.01412 6.7242 7.16116C6.66329 7.30821 6.64736 7.47001 6.67841 7.62611C6.70946 7.78221 6.7861 7.9256 6.89864 8.03814C7.01119 8.15068 7.15457 8.22733 7.31067 8.25838C7.46678 8.28943 7.62858 8.27349 7.77562 8.21258C7.92267 8.15168 8.04835 8.04853 8.13677 7.9162C8.2252 7.78386 8.27239 7.62827 8.27239 7.46912C8.27239 7.25569 8.18761 7.05101 8.03669 6.90009C7.88578 6.74918 7.68109 6.66439 7.46767 6.66439ZM15.175 15.1721C15.0671 15.28 14.9208 15.3406 14.7683 15.3406C14.6157 15.3406 14.4694 15.28 14.3616 15.1721L14.0042 14.8148C13.8542 14.9137 13.6945 14.9974 13.5278 15.0646C13.314 15.1543 13.0842 15.1993 12.8523 15.1968C12.803 15.1968 12.7536 15.1968 12.7027 15.1924C12.5506 15.1815 12.409 15.1105 12.3091 14.9951C12.2093 14.8797 12.1594 14.7294 12.1704 14.5773C12.1813 14.4251 12.2523 14.2835 12.3677 14.1837C12.4831 14.0838 12.6334 14.0339 12.7855 14.0449C12.8834 14.0559 12.9825 14.0434 13.0746 14.0086C13.1751 13.9688 13.2715 13.9192 13.3622 13.8604C13.4544 13.7977 13.5423 13.7288 13.6251 13.6542C13.8144 13.4663 13.9485 13.2302 14.0129 12.9715C14.074 12.6824 13.9766 12.5851 13.9302 12.5386C13.8573 12.4675 13.7615 12.4247 13.66 12.418C13.5518 12.4112 13.4432 12.423 13.339 12.4529C13.2335 12.4866 13.1329 12.534 13.0397 12.5938C12.9536 12.65 12.8738 12.7153 12.8015 12.7884C12.6817 12.9095 12.552 13.0203 12.4137 13.1196C12.226 13.2539 12.0194 13.3597 11.8007 13.4334C11.5455 13.5184 11.2751 13.5481 11.0076 13.5205C10.6416 13.4863 10.2985 13.3274 10.0358 13.0702C9.84203 12.869 9.70345 12.6211 9.63347 12.3506C9.56349 12.0801 9.56449 11.7961 9.63636 11.5261C9.69985 11.2571 9.80839 11.0007 9.95737 10.7679L9.60876 10.4193C9.55148 10.3669 9.5054 10.3034 9.4733 10.2327C9.44121 10.162 9.42375 10.0855 9.422 10.0079C9.42024 9.9303 9.43422 9.85313 9.46309 9.78105C9.49195 9.70898 9.53511 9.64349 9.58997 9.58854C9.64482 9.53359 9.71023 9.49031 9.78225 9.46132C9.85428 9.43232 9.93142 9.41821 10.009 9.41982C10.0867 9.42144 10.1632 9.43876 10.2339 9.47073C10.3047 9.5027 10.3682 9.54866 10.4207 9.60585L10.7824 9.96608C10.9401 9.86903 11.107 9.78777 11.2807 9.7235C11.5058 9.63821 11.7444 9.59394 11.9852 9.59277C12.1377 9.59258 12.2841 9.653 12.3921 9.76074C12.5001 9.86847 12.5609 10.0147 12.5611 10.1673C12.5613 10.3198 12.5009 10.4662 12.3931 10.5742C12.2854 10.6822 12.1392 10.743 11.9866 10.7432C11.8843 10.7442 11.783 10.7634 11.6874 10.7999C11.582 10.8379 11.4808 10.8866 11.3852 10.9451L11.3562 10.9625C11.2805 11.008 11.2086 11.0595 11.1412 11.1165C10.9568 11.2999 10.8245 11.529 10.7577 11.7803C10.7298 11.8608 10.7236 11.9472 10.7397 12.0308C10.7557 12.1145 10.7935 12.1924 10.8493 12.2568C10.9259 12.3254 11.0227 12.3672 11.1252 12.3759C11.2305 12.3864 11.3369 12.375 11.4375 12.3425C11.5467 12.3045 11.6499 12.2512 11.744 12.1842C11.8311 12.1214 11.9127 12.0514 11.9881 11.975C12.1186 11.8438 12.2627 11.727 12.418 11.6264C12.5984 11.5108 12.7933 11.4194 12.9976 11.3547C13.2376 11.2829 13.4884 11.2544 13.7384 11.2705C14.1176 11.296 14.4747 11.458 14.7436 11.7266C14.9334 11.9179 15.0695 12.1558 15.1384 12.4164C15.2072 12.6769 15.2063 12.951 15.1358 13.2111C15.0738 13.4893 14.9642 13.7547 14.8119 13.9955L15.175 14.3601C15.2286 14.4134 15.2711 14.4768 15.3001 14.5466C15.3291 14.6164 15.3441 14.6912 15.3441 14.7668C15.3441 14.8424 15.3291 14.9173 15.3001 14.9871C15.2711 15.0569 15.2286 15.1188 15.175 15.1721Z" fill="#7E00A7"/>
</svg>
