<svg width="26" height="26" viewBox="0 0 26 26" fill="none" xmlns="http://www.w3.org/2000/svg">
<g clip-path="url(#clip0_1002_1884)">
<path d="M11.1324 9.09802L9.00295 20.2727H9.00119L0 21.6064L12.0101 25.9164L22.7024 24.4797L26 10.5558L11.1324 9.09802ZM9.02055 24.235L6.07327 23.1108L7.49321 22.9198L10.8005 24.0255L9.02055 24.235ZM21.7261 23.3107L9.83132 19.947L11.7416 10.0805L24.5026 11.5805L21.7261 23.3107ZM7.51346 8.36913H8.93076V9.71776H7.51346V8.36913ZM7.88231 6.4747H6.45885C6.47205 6.26254 6.51519 6.05039 6.58825 5.84351C6.66044 5.6384 6.77136 5.45354 6.92101 5.28892C7.07154 5.12606 7.26345 4.99313 7.49761 4.89278C7.73178 4.78978 8.017 4.73784 8.3524 4.73784C8.68339 4.73784 8.96333 4.78186 9.19045 4.87165C9.41757 4.95968 9.60156 5.07412 9.74241 5.21145C9.88326 5.35054 9.98713 5.50283 10.0523 5.66833C10.1183 5.83383 10.1553 5.99229 10.165 6.14194C10.165 6.35057 10.1368 6.52047 10.0831 6.649C10.0294 6.77752 9.9572 6.88668 9.86829 6.97295C9.77938 7.0601 9.68167 7.13053 9.57251 7.18775C9.46335 7.24409 9.35155 7.30131 9.23887 7.36117C9.1614 7.40255 9.09802 7.44304 9.04784 7.48353C8.99766 7.52491 8.95805 7.56716 8.93164 7.61206C8.90523 7.65784 8.88586 7.70977 8.87354 7.76963C8.8621 7.82774 8.85681 7.89552 8.85681 7.97211H7.59621C7.59181 7.9052 7.58917 7.82069 7.58917 7.71506C7.58917 7.60678 7.60325 7.49498 7.63054 7.3823C7.65695 7.26874 7.70449 7.15606 7.77315 7.04778C7.84181 6.94038 7.94129 6.84883 8.07334 6.77488C8.12704 6.74671 8.1913 6.71766 8.26436 6.68597C8.33743 6.65604 8.40609 6.62083 8.47212 6.58033C8.53638 6.54248 8.59272 6.49582 8.6385 6.44301C8.68339 6.38843 8.70628 6.3224 8.70628 6.24494C8.70628 6.01165 8.576 5.89633 8.3119 5.89633C8.14816 5.89633 8.03196 5.95531 7.96418 6.07327C7.89551 6.19212 7.86823 6.32592 7.88231 6.4747ZM15.7937 16.5754L17.3791 17.6476L16.3597 19.1573L14.7725 18.0851L15.7937 16.5754ZM20.6785 14.725C20.7322 14.9864 20.7322 15.2356 20.6803 15.4724C20.6266 15.7074 20.55 15.9125 20.4461 16.0859C20.2885 16.3219 20.1318 16.4891 19.9716 16.5921C19.8105 16.696 19.6521 16.762 19.4839 16.7928C19.3202 16.8254 19.1565 16.8289 18.9901 16.8113C18.8246 16.7928 18.6556 16.7726 18.4848 16.755C18.3677 16.74 18.2665 16.7382 18.1776 16.7471C18.0904 16.755 18.0156 16.7726 17.9504 16.8025C17.8853 16.8342 17.8228 16.8765 17.7664 16.9337C17.711 16.99 17.6529 17.0622 17.593 17.1476L16.181 16.1951C16.2277 16.115 16.2893 16.019 16.3703 15.8993C16.453 15.7778 16.5525 15.6634 16.6678 15.5577C16.7849 15.4504 16.9222 15.3623 17.0807 15.2919C17.2418 15.2197 17.4222 15.1942 17.6238 15.2127C17.7031 15.2232 17.7973 15.2373 17.902 15.2576C18.0068 15.2778 18.1115 15.2901 18.2136 15.2972C18.3166 15.3042 18.4152 15.2937 18.5059 15.2664C18.5975 15.24 18.6732 15.1836 18.733 15.0991C18.9065 14.8377 18.8501 14.6088 18.5543 14.4098C18.3721 14.2866 18.1969 14.2655 18.0297 14.3473C17.8642 14.4265 17.7321 14.5577 17.6362 14.7347L16.041 13.6554C16.218 13.4292 16.4257 13.224 16.6634 13.0489C16.902 12.8719 17.1634 12.7496 17.4557 12.6791C17.7462 12.6096 18.0614 12.6061 18.4012 12.6686C18.7401 12.7302 19.0992 12.8886 19.476 13.1422C19.8475 13.3939 20.1257 13.6554 20.3132 13.9265C20.5016 14.1959 20.6213 14.4635 20.6785 14.725ZM0.95954 17.2673L0.158456 17.2031L0.22624 16.3624L1.02732 16.4266L0.95954 17.2673ZM2.45959 17.0182C2.46751 16.9214 2.43846 16.8492 2.37156 16.8016C2.30466 16.755 2.22631 16.733 2.13564 16.7338L2.20606 15.8879C2.33195 15.9064 2.45343 15.9424 2.57403 15.9961C2.69199 16.049 2.79675 16.1247 2.88742 16.2215C2.97633 16.3166 3.04588 16.4381 3.09518 16.5824C3.14447 16.7259 3.16208 16.8976 3.14535 17.0983C3.12951 17.2955 3.08813 17.4583 3.02651 17.5904C2.96225 17.7198 2.88566 17.8263 2.79675 17.902C2.70696 17.9812 2.611 18.0341 2.50977 18.0658C2.40853 18.0966 2.31346 18.1133 2.22279 18.1115C2.09866 18.0992 2.00007 18.0754 1.92612 18.0376C1.8513 17.9997 1.79143 17.9504 1.74302 17.895C1.69724 17.8386 1.65851 17.7753 1.62946 17.7075C1.60129 17.6388 1.57312 17.5719 1.54319 17.5032C1.52294 17.4531 1.50181 17.4134 1.4798 17.3826C1.4578 17.3483 1.43403 17.3245 1.4085 17.3069C1.38209 17.2867 1.35216 17.2726 1.31871 17.262C1.28349 17.2532 1.243 17.2462 1.19722 17.2435L1.25797 16.4944C1.29934 16.4944 1.3504 16.4962 1.4129 16.5014C1.47804 16.5067 1.54319 16.5199 1.60921 16.5428C1.67523 16.5648 1.73862 16.5974 1.80024 16.6441C1.86186 16.6916 1.91116 16.7523 1.94725 16.8351C1.96133 16.8694 1.9763 16.9073 1.99126 16.9539C2.00623 16.9979 2.02472 17.042 2.04408 17.0824C2.06433 17.1256 2.08986 17.1599 2.11979 17.189C2.14884 17.2189 2.18669 17.2374 2.23335 17.2409C2.37156 17.2488 2.44639 17.1766 2.45959 17.0182ZM22.1108 5.87608L22.3344 6.649L21.5219 6.88316L21.2991 6.10937L22.1108 5.87608ZM20.3827 5.19825C20.3554 5.07412 20.3449 4.9456 20.3537 4.81531C20.3607 4.68502 20.3951 4.5609 20.4514 4.44206C20.5113 4.3241 20.5993 4.2167 20.7181 4.11898C20.8335 4.02215 20.9901 3.94556 21.1803 3.8901C21.3696 3.83552 21.5368 3.81528 21.6812 3.8276C21.8256 3.8408 21.9523 3.8769 22.0553 3.93236C22.1574 3.98782 22.2428 4.05824 22.3071 4.14363C22.3705 4.22814 22.4189 4.31177 22.4497 4.3954C22.484 4.516 22.4972 4.61724 22.4858 4.70087C22.4752 4.78362 22.4532 4.85668 22.4171 4.92095C22.381 4.98609 22.3361 5.04155 22.2824 5.09349C22.2279 5.14367 22.1759 5.19384 22.1196 5.24754C22.0817 5.28275 22.0509 5.31709 22.0289 5.34966C22.0078 5.37959 21.9911 5.41128 21.984 5.44121C21.9752 5.47202 21.9717 5.50547 21.9752 5.54157C21.9787 5.57678 21.9858 5.61639 21.999 5.66041L21.2771 5.86816C21.263 5.83031 21.2481 5.78101 21.2305 5.72203C21.212 5.65865 21.2014 5.59262 21.1979 5.5222C21.1961 5.45354 21.2049 5.38135 21.2252 5.30828C21.2454 5.23346 21.2886 5.16655 21.3528 5.10317C21.3801 5.07764 21.4109 5.05035 21.447 5.01954C21.4831 4.98961 21.5157 4.95968 21.5483 4.92623C21.5791 4.89278 21.6028 4.85756 21.6205 4.81795C21.6381 4.7801 21.6389 4.73872 21.6275 4.69383C21.5896 4.5609 21.4954 4.51688 21.344 4.55914C21.2516 4.58731 21.1944 4.64101 21.1741 4.71936C21.1556 4.7977 21.16 4.87957 21.1944 4.96232L20.3827 5.19825ZM15.8615 7.69041L16.3518 7.73882L16.3051 8.20627L15.8157 8.15697L15.8615 7.69041ZM16.0551 7.04866L15.5613 7.00112C15.5718 6.92718 15.5947 6.85587 15.6255 6.78721C15.6581 6.71766 15.703 6.6578 15.7602 6.60586C15.8148 6.55481 15.8887 6.51343 15.9733 6.48702C16.0586 6.45973 16.1572 6.45269 16.2743 6.46413C16.3888 6.47558 16.4838 6.50023 16.5578 6.53808C16.6335 6.57505 16.6933 6.62171 16.7382 6.67453C16.7814 6.72735 16.8122 6.78369 16.8298 6.84267C16.8474 6.90253 16.8518 6.95711 16.8518 7.00993C16.8448 7.08299 16.8298 7.13933 16.8043 7.18247C16.7814 7.22648 16.7523 7.26081 16.7198 7.28898C16.6854 7.31363 16.6493 7.33476 16.6097 7.35149C16.5701 7.36733 16.5278 7.38318 16.4865 7.40078C16.4601 7.41311 16.4345 7.42367 16.416 7.43688C16.3976 7.45008 16.3835 7.46241 16.3729 7.47737C16.3606 7.49234 16.3535 7.50994 16.3483 7.53019C16.3403 7.55132 16.3368 7.57421 16.3351 7.59973L15.9002 7.55836C15.9002 7.53371 15.9019 7.50378 15.9072 7.46769C15.9108 7.42895 15.9196 7.39198 15.931 7.35325C15.9424 7.31451 15.9653 7.27754 15.9917 7.24233C16.019 7.20624 16.0569 7.17895 16.1053 7.15694C16.1247 7.15078 16.1493 7.14197 16.174 7.13229C16.2013 7.12437 16.2268 7.11468 16.2497 7.10412C16.2726 7.09267 16.2954 7.07859 16.3113 7.0601C16.3298 7.04338 16.3395 7.02137 16.3412 6.99496C16.3491 6.91573 16.3069 6.87084 16.2153 6.86115C16.159 6.85587 16.1159 6.87348 16.0877 6.91133C16.063 6.94918 16.0516 6.99584 16.0551 7.04866ZM13.2751 17.6203C13.2927 17.6811 13.2989 17.7356 13.2971 17.7867C13.2901 17.8606 13.276 17.9161 13.2522 17.9601C13.2284 18.0033 13.1994 18.0393 13.1659 18.064C13.1316 18.0904 13.0955 18.1133 13.0559 18.1283C13.0154 18.1459 12.9758 18.16 12.9344 18.1784C12.9062 18.189 12.8825 18.2004 12.864 18.2136C12.8455 18.2286 12.8305 18.2383 12.8191 18.2541C12.8085 18.2709 12.7997 18.2885 12.7944 18.3078C12.7883 18.3281 12.7839 18.3527 12.7804 18.3765L12.3446 18.3351C12.3455 18.3114 12.3481 18.2806 12.3517 18.2436C12.3552 18.2057 12.3631 18.1679 12.3772 18.13C12.3895 18.0922 12.4098 18.0552 12.437 18.0191C12.4652 17.983 12.5022 17.9557 12.5506 17.9355C12.5708 17.9267 12.5937 17.9179 12.6193 17.9108C12.6457 17.902 12.6703 17.8923 12.695 17.8827C12.7187 17.8703 12.7399 17.858 12.7575 17.8378C12.7742 17.8219 12.7839 17.799 12.7874 17.7744C12.7944 17.6934 12.7531 17.6494 12.6624 17.6397C12.6043 17.6344 12.5629 17.6529 12.5348 17.6907C12.5075 17.7295 12.4934 17.777 12.4934 17.8272L12.0004 17.7788C12.011 17.7048 12.0339 17.6326 12.0656 17.5657C12.0972 17.4953 12.1439 17.4363 12.2002 17.3835C12.2566 17.3307 12.3279 17.292 12.4133 17.2647C12.4969 17.2374 12.5973 17.2303 12.7135 17.2418C12.8297 17.2523 12.9247 17.277 12.9987 17.3157C13.0753 17.3545 13.1342 17.3985 13.1783 17.4522C13.2232 17.505 13.2549 17.5622 13.2751 17.6203ZM12.3006 18.4689L12.7918 18.5182L12.7469 18.983L12.2566 18.9355L12.3006 18.4689ZM2.99922 3.53974L2.50449 3.49132C2.51593 3.41826 2.53882 3.34783 2.57051 3.27829C2.60396 3.20962 2.64798 3.14888 2.7052 3.09606C2.76154 3.045 2.83284 3.00451 2.91735 2.9781C3.00186 2.95081 3.10222 2.94377 3.21842 2.95433C3.33374 2.96578 3.42969 2.99042 3.50628 3.02916C3.58111 3.06613 3.64097 3.11191 3.68498 3.16561C3.729 3.21842 3.75893 3.27388 3.77654 3.33375C3.79326 3.39361 3.8003 3.44819 3.79942 3.50365C3.79238 3.57495 3.77654 3.63217 3.75365 3.67619C3.72988 3.71844 3.70083 3.75277 3.66826 3.78094C3.63481 3.80559 3.59783 3.82672 3.55822 3.84345C3.51772 3.85929 3.47723 3.8769 3.43674 3.89274C3.40857 3.90507 3.3848 3.91563 3.36719 3.92884C3.34782 3.94204 3.33198 3.95348 3.32142 3.96933C3.31173 3.9843 3.30293 4.0019 3.29677 4.02215C3.2906 4.04152 3.2862 4.06616 3.28356 4.08993L2.84693 4.04944C2.84869 4.02567 2.85045 3.99574 2.85485 3.95877C2.85837 3.92091 2.86629 3.88394 2.8795 3.84433C2.89358 3.80735 2.91295 3.77038 2.94024 3.73429C2.96753 3.69819 3.0045 3.67178 3.0538 3.64978C3.07317 3.64361 3.09606 3.63481 3.12158 3.62601C3.14799 3.61809 3.17264 3.60752 3.19817 3.59608C3.22194 3.58551 3.24307 3.57055 3.26067 3.55294C3.27828 3.5371 3.28708 3.51421 3.28972 3.4878C3.29765 3.40681 3.25715 3.3628 3.1656 3.35311C3.10838 3.34783 3.06613 3.36456 3.03884 3.40329C3.01155 3.44202 2.99834 3.4878 2.99922 3.53974ZM2.80643 4.18237L3.29677 4.23078L3.25011 4.69735L2.75978 4.64893L2.80643 4.18237ZM4.01862 13.4776L2.79323 13.8297L2.45783 12.6642L3.68322 12.312L4.01862 13.4776ZM1.0731 11.2891C1.03084 11.0999 1.01852 10.9088 1.02732 10.7125C1.04053 10.5153 1.08983 10.3287 1.17962 10.15C1.26589 9.97129 1.40146 9.80668 1.57752 9.66054C1.75534 9.51353 1.9895 9.39997 2.28001 9.31458C2.56611 9.23183 2.81876 9.20278 3.03707 9.22215C3.25363 9.24152 3.44202 9.29433 3.59607 9.37972C3.75277 9.46423 3.87953 9.57163 3.97725 9.69664C4.07496 9.82604 4.14803 9.95281 4.1938 10.0787C4.24574 10.26 4.26335 10.4141 4.24926 10.5382C4.2343 10.6641 4.19909 10.7741 4.14363 10.8719C4.08905 10.9678 4.02214 11.055 3.94115 11.1307C3.86105 11.2081 3.78006 11.2856 3.69643 11.3639C3.64009 11.4203 3.59431 11.4705 3.56174 11.5189C3.52917 11.5655 3.50628 11.6113 3.49396 11.6589C3.48163 11.7055 3.47723 11.7548 3.48251 11.8085C3.48691 11.8613 3.50012 11.9229 3.51861 11.9898L2.42878 12.3024C2.40853 12.2451 2.38476 12.1712 2.36012 12.0805C2.33106 11.9863 2.31522 11.8869 2.31082 11.7812C2.30642 11.6765 2.31874 11.5691 2.35307 11.4573C2.38388 11.3455 2.44815 11.2433 2.5441 11.1483C2.58548 11.1095 2.63125 11.0682 2.68583 11.0215C2.74217 10.9775 2.79323 10.93 2.839 10.8798C2.88742 10.8287 2.92351 10.775 2.94816 10.716C2.97633 10.6579 2.97809 10.5972 2.95961 10.5294C2.90239 10.3305 2.75978 10.2618 2.53178 10.3278C2.39093 10.3666 2.30466 10.4475 2.27473 10.5664C2.24656 10.6861 2.25448 10.8076 2.30466 10.9352L1.0731 11.2891ZM14.3368 3.18145L14.6722 4.3461L13.4468 4.69823L13.1122 3.53358L14.3368 3.18145ZM11.7275 2.15853C11.6861 1.96926 11.6721 1.77823 11.6835 1.58105C11.6958 1.38386 11.7451 1.19635 11.8331 1.01765C11.9212 0.839823 12.055 0.676085 12.2328 0.529073C12.4089 0.382941 12.6439 0.26762 12.9344 0.183991C13.2205 0.101241 13.4732 0.0713108 13.6915 0.0897973C13.9089 0.110925 14.0955 0.164624 14.2522 0.248253C14.4089 0.331883 14.5357 0.438401 14.6343 0.566926C14.732 0.693691 14.8024 0.820456 14.8509 0.948101C14.9028 1.12945 14.9178 1.28262 14.9054 1.40674C14.8887 1.53263 14.8544 1.64355 14.7989 1.74126C14.7443 1.83722 14.6774 1.92349 14.5964 1.99919C14.5172 2.07578 14.4345 2.15413 14.3544 2.23336C14.2945 2.28882 14.2505 2.33811 14.217 2.38741C14.1845 2.43495 14.1625 2.4816 14.1492 2.52826C14.136 2.57316 14.1325 2.62333 14.136 2.67791C14.1431 2.73073 14.1545 2.79235 14.1739 2.85838L13.0841 3.17089C13.0638 3.11367 13.0392 3.03884 13.0136 2.94817C12.9855 2.85486 12.9696 2.75626 12.9652 2.64974C12.9617 2.54499 12.974 2.43759 13.0066 2.32667C13.0383 2.21487 13.1026 2.11187 13.1985 2.01592C13.2399 1.97807 13.2865 1.93757 13.3411 1.89091C13.3957 1.84514 13.4459 1.7976 13.4943 1.74918C13.541 1.69813 13.5788 1.64443 13.6026 1.58545C13.6299 1.52647 13.6316 1.46484 13.6149 1.39794C13.5568 1.19811 13.4142 1.13121 13.1871 1.19371C13.0462 1.23508 12.9599 1.31519 12.9309 1.43403C12.9018 1.55376 12.9106 1.677 12.9599 1.80288L11.7275 2.15853ZM6.75815 15.8456L5.82062 15.6695C5.85671 15.5296 5.91129 15.3967 5.98524 15.269C6.0583 15.144 6.15338 15.0357 6.27222 14.9459C6.39018 14.857 6.53455 14.7928 6.70093 14.7549C6.86731 14.7162 7.06186 14.7171 7.28282 14.7584C7.5029 14.7989 7.68072 14.8632 7.81893 14.9495C7.95714 15.0375 8.06365 15.1352 8.13936 15.2417C8.21507 15.3509 8.26436 15.4671 8.28725 15.5842C8.31014 15.7012 8.31542 15.8095 8.3031 15.909C8.27845 16.0446 8.23884 16.1528 8.1869 16.2321C8.13408 16.3131 8.0751 16.372 8.00555 16.4213C7.93601 16.4662 7.86294 16.5006 7.78371 16.5226C7.70449 16.5472 7.62438 16.5728 7.54339 16.5965C7.48705 16.6141 7.43951 16.6326 7.40166 16.6546C7.36469 16.6731 7.333 16.696 7.30923 16.7242C7.28722 16.7497 7.26785 16.7814 7.25201 16.8175C7.23792 16.8553 7.2256 16.9011 7.21591 16.9504L6.38578 16.7928C6.39194 16.7497 6.40074 16.6916 6.41395 16.6229C6.42627 16.5516 6.45004 16.4803 6.48173 16.4064C6.51342 16.3351 6.55832 16.2682 6.6173 16.2048C6.67628 16.1414 6.75287 16.0947 6.84794 16.0622C6.88844 16.0498 6.93333 16.0419 6.98527 16.0287C7.03809 16.0155 7.08563 16.0014 7.13492 15.9829C7.18246 15.9662 7.2256 15.9433 7.26257 15.9125C7.29866 15.8826 7.32155 15.8439 7.33212 15.7884C7.36029 15.6379 7.2881 15.5463 7.11468 15.5137C7.00728 15.4935 6.92189 15.5181 6.86379 15.5859C6.80393 15.6581 6.76872 15.7444 6.75815 15.8456ZM6.28366 17.049L7.21679 17.2224L7.0513 18.1107L6.11817 17.9364L6.28366 17.049Z" fill="#7E00A7"/>
</g>
<defs>
<clipPath id="clip0_1002_1884">
<rect width="26" height="26" fill="white"/>
</clipPath>
</defs>
</svg>
