<svg width="23" height="23" viewBox="0 0 23 23" fill="none" xmlns="http://www.w3.org/2000/svg">
<g clip-path="url(#clip0_1002_1875)">
<path d="M11.6782 20.7071C12.3295 21.3584 15.0692 19.6738 15.7205 19.0229L18.3977 16.3453L16.0396 13.9875L13.3624 16.6648C12.7115 17.3157 11.0273 20.0558 11.6782 20.7071Z" fill="#7E00A7"/>
<path d="M22.1578 10.2287C21.5065 9.57775 20.451 9.57775 19.8001 10.2287L16.5801 13.4486L18.9382 15.8063L22.1578 12.5863C22.8087 11.9355 22.8087 10.8799 22.1578 10.2287ZM17.9502 13.8755L17.5455 13.4713L19.7997 11.2171L20.2036 11.6209L17.9502 13.8755Z" fill="#7E00A7"/>
<path d="M16.8323 20.1337C16.2002 20.765 13.7969 22.425 12.1249 22.425C12.1246 22.425 12.1249 22.425 12.1246 22.425C11.3398 22.425 10.845 22.0948 10.5681 21.8179C8.55748 19.8065 12.2124 15.5935 12.2523 15.554L12.4375 15.3687C12.2603 15.1732 12.184 14.9039 12.184 14.3669C12.184 13.97 12.184 13.2323 12.184 12.5519C12.6945 11.985 12.8801 12.0556 13.3117 9.82983C14.1846 9.82983 14.1282 8.69564 14.5398 7.68957C14.8758 6.87029 14.5943 6.53814 14.312 6.40234C14.5429 3.41669 14.5429 1.36049 11.1541 0.72264C9.92558 -0.330239 8.07224 0.0272491 7.19393 0.202894C6.31633 0.378583 5.52467 0.202894 5.52467 0.202894L5.67539 1.61748C4.39013 3.15974 5.03296 5.21595 4.82587 6.42035C4.55661 6.56725 4.31344 6.90591 4.6341 7.68957C5.04603 8.69564 4.98925 9.82983 5.86222 9.82983C6.2941 12.0556 6.47976 11.985 6.99025 12.5519C6.99025 13.2324 6.99025 13.97 6.99025 14.3669C6.99025 15.5011 6.60482 15.5207 5.72642 16.0116C3.6088 17.1953 0.849159 17.883 0.355064 21.5823C0.264591 22.259 4.14926 22.9976 9.58732 23C15.0247 22.9976 18.9097 22.259 18.8196 21.5823C18.6773 20.5176 18.3412 19.716 17.8906 19.0754L16.8323 20.1337Z" fill="#7E00A7"/>
</g>
<defs>
<clipPath id="clip0_1002_1875">
<rect width="23" height="23" fill="white"/>
</clipPath>
</defs>
</svg>
