<svg width="26" height="26" viewBox="0 0 26 26" fill="none" xmlns="http://www.w3.org/2000/svg">
<path d="M24.9173 13C24.9173 19.5813 19.582 24.9166 13.0007 24.9166C6.41926 24.9166 1.08398 19.5813 1.08398 13C1.08398 6.41859 6.41926 1.08331 13.0007 1.08331C19.582 1.08331 24.9173 6.41859 24.9173 13ZM3.25805 13C3.25805 18.3807 7.61996 22.7426 13.0007 22.7426C18.3814 22.7426 22.7433 18.3807 22.7433 13C22.7433 7.61929 18.3814 3.25738 13.0007 3.25738C7.61996 3.25738 3.25805 7.61929 3.25805 13Z" fill="#7E00A7"/>
<path d="M12.9993 5.41669C12.401 5.41669 11.916 5.90171 11.916 6.50002V13.5056C11.916 13.5056 11.916 13.788 12.0533 14.0005C12.1451 14.1806 12.2884 14.3372 12.4765 14.4458L17.4813 17.3354C17.9995 17.6345 18.662 17.457 18.9611 16.9388C19.2603 16.4206 19.0828 15.7581 18.5646 15.459L14.0827 12.8713V6.50002C14.0827 5.90172 13.5977 5.41669 12.9993 5.41669Z" fill="#7E00A7"/>
</svg>
