<svg width="17" height="17" viewBox="0 0 17 17" fill="none" xmlns="http://www.w3.org/2000/svg">
<path fill-rule="evenodd" clip-rule="evenodd" d="M3.4 0C1.52223 0 0 1.52223 0 3.4V4.25C0 6.12777 1.52223 7.65 3.4 7.65H4.25C6.12777 7.65 7.65 6.12777 7.65 4.25V3.4C7.65 1.52223 6.12777 0 4.25 0H3.4ZM12.75 0C10.8723 0 9.35 1.52223 9.35 3.4V4.25C9.35 6.12777 10.8723 7.65 12.75 7.65H13.6C15.4777 7.65 17 6.12777 17 4.25V3.4C17 1.52223 15.4777 0 13.6 0H12.75ZM3.4 9.35C1.52223 9.35 0 10.8723 0 12.75V13.6C0 15.4777 1.52223 17 3.4 17H4.25C6.12777 17 7.65 15.4777 7.65 13.6V12.75C7.65 10.8723 6.12777 9.35 4.25 9.35H3.4ZM12.75 9.35C10.8723 9.35 9.35 10.8723 9.35 12.75V13.6C9.35 15.4777 10.8723 17 12.75 17H13.6C15.4777 17 17 15.4777 17 13.6V12.75C17 10.8723 15.4777 9.35 13.6 9.35H12.75Z" fill="#7E00A7"/>
</svg>
