<svg width="19" height="22" viewBox="0 0 19 22" fill="none" xmlns="http://www.w3.org/2000/svg">
<path d="M19 17.875V1.375C19 0.614969 18.393 0 17.6429 0H3.39286V17.5312V18.5625H17.6429V21.3125H2.03571C1.28623 21.3125 0.678571 20.6968 0.678571 19.9375C0.678571 19.1782 1.28623 18.5625 2.03571 18.5625H2.71429V17.5312V0H1.35714C0.606982 0 0 0.614969 0 1.375V19.9375C0 21.0763 0.911661 22 2.03571 22H18.6607C18.8483 22 19 21.8463 19 21.6562C19 21.4662 18.8483 21.3125 18.6607 21.3125H18.3214V18.5625C18.696 18.5625 19 18.2545 19 17.875ZM6.44643 4.8125H10.5179C10.7055 4.8125 10.8571 4.96616 10.8571 5.15625C10.8571 5.34634 10.7055 5.5 10.5179 5.5H6.44643C6.2588 5.5 6.10714 5.34634 6.10714 5.15625C6.10714 4.96616 6.2588 4.8125 6.44643 4.8125ZM12.8929 9.625H6.44643C6.2588 9.625 6.10714 9.47134 6.10714 9.28125C6.10714 9.09116 6.2588 8.9375 6.44643 8.9375H12.8929C13.0805 8.9375 13.2321 9.09116 13.2321 9.28125C13.2321 9.47134 13.0805 9.625 12.8929 9.625ZM15.2679 7.5625H6.44643C6.2588 7.5625 6.10714 7.40884 6.10714 7.21875C6.10714 7.02866 6.2588 6.875 6.44643 6.875H15.2679C15.4555 6.875 15.6071 7.02866 15.6071 7.21875C15.6071 7.40884 15.4555 7.5625 15.2679 7.5625Z" fill="#7E00A7"/>
</svg>
