<svg width="22" height="23" viewBox="0 0 22 23" fill="none" xmlns="http://www.w3.org/2000/svg">
<ellipse cx="11" cy="11.5" rx="11" ry="11.5" fill="#F5DCFE"/>
<path fill-rule="evenodd" clip-rule="evenodd" d="M11 5.86747C9.55025 5.86747 8.375 7.2268 8.375 8.90361V10.0623C8.5665 10.0602 8.77425 10.0602 9 10.0602H13C14.4142 10.0602 15.1213 10.0602 15.5606 10.5684C16 11.0766 16 11.8944 16 13.5301C16 15.1658 16 15.9837 15.5606 16.4918C15.1213 17 14.4142 17 13 17H9C7.58579 17 6.87868 17 6.43934 16.4918C6 15.9837 6 15.1658 6 13.5301C6 11.8944 6 11.0766 6.43934 10.5684C6.70465 10.2615 7.06763 10.14 7.625 10.0918V8.90361C7.625 6.74771 9.13604 5 11 5C12.5732 5 13.894 6.24447 14.2687 7.92803C14.3203 8.16002 14.1995 8.39648 13.999 8.45619C13.7984 8.5159 13.594 8.37624 13.5423 8.14425C13.2509 6.83465 12.2227 5.86747 11 5.86747ZM11.375 12.3735C11.375 12.134 11.2071 11.9398 11 11.9398C10.7929 11.9398 10.625 12.134 10.625 12.3735V14.6867C10.625 14.9263 10.7929 15.1205 11 15.1205C11.2071 15.1205 11.375 14.9263 11.375 14.6867V12.3735Z" fill="#7E00A7"/>
</svg>
