<svg width="22" height="23" viewBox="0 0 22 23" fill="none" xmlns="http://www.w3.org/2000/svg">
<ellipse cx="11" cy="11.5" rx="11" ry="11.5" fill="#F5DCFE"/>
<path d="M9.91234 14.5013C9.93219 14.6321 9.99744 14.7578 10.1083 14.8785C10.2183 14.9989 10.3491 15.0593 10.5 15.0593C10.8517 15.0593 11.0474 14.8731 11.0874 14.5013L12.2627 5.47074C12.2829 5.31061 12.293 5.08439 12.293 4.7929C12.293 4.34074 12.1376 3.92919 11.826 3.55708C11.5146 3.18561 11.0726 3 10.5 3C9.90669 3 9.46014 3.19065 9.15893 3.57196C8.85767 3.94403 8.70703 4.35087 8.70703 4.79294C8.70703 5.06427 8.71649 5.29019 8.73665 5.47078L9.91234 14.5013Z" fill="#7E00A7"/>
<path d="M11.7969 16.8811C11.4553 16.5395 11.0231 16.3684 10.5009 16.3684C9.98883 16.3684 9.55655 16.5448 9.2049 16.8962C8.85325 17.2479 8.67773 17.6745 8.67773 18.1768C8.67773 18.6589 8.85325 19.0859 9.2049 19.4577C9.55655 19.8194 9.98886 20 10.5009 20C11.013 20 11.4447 19.8245 11.7969 19.4725C12.148 19.1214 12.3241 18.6892 12.3241 18.1768C12.3241 17.6644 12.148 17.2327 11.7969 16.8811Z" fill="#7E00A7"/>
</svg>
