<svg width="94" height="138" viewBox="0 0 94 138" fill="none" xmlns="http://www.w3.org/2000/svg">
<g filter="url(#filter0_d_2796_6432)">
<rect x="3" y="2" width="88" height="132" rx="5" fill="#FBF1FF"/>
</g>
<path d="M66.5849 52.3245C66.5851 52.3244 66.5853 52.3242 66.5853 52.3242L55.676 41.4149C55.4198 41.1586 55.0658 41 54.6746 41H28.4159C27.6339 41 27 41.6339 27 42.4159V92.9041C27 93.6862 27.6339 94.3201 28.4159 94.3201H65.5841C66.3661 94.3201 67 93.6862 67 92.9041V53.3253C67 52.9632 66.8532 52.5948 66.5849 52.3245ZM64.1681 91.4882H29.8319V43.8319H54.0881L62.1657 51.9094H56.0905V48.9509C56.0905 48.1689 55.4566 47.535 54.6746 47.535C53.8926 47.535 53.2587 48.1689 53.2587 48.9509V53.3253C53.2587 54.1073 53.8926 54.7412 54.6746 54.7412C54.6746 54.7412 61.2165 54.7412 64.1681 54.7412V91.4882Z" fill="#7E00A7"/>
<path d="M39.5853 55.2294L36.7638 58.051L36.3604 57.6477C35.8074 57.0947 34.911 57.0947 34.3581 57.6477C33.8051 58.2006 33.8051 59.0971 34.3581 59.6501L35.7627 61.0547C36.0282 61.3203 36.3884 61.4694 36.7639 61.4694C37.1395 61.4694 37.4996 61.3203 37.7652 61.0547L41.5879 57.2318C42.1408 56.6788 42.1408 55.7823 41.5878 55.2294C41.0347 54.6765 40.1382 54.6765 39.5853 55.2294Z" fill="#7E00A7"/>
<path d="M58.1718 61.4694H58.6423C59.4243 61.4694 60.0582 60.8355 60.0582 60.0535C60.0582 59.2715 59.4243 58.6376 58.6423 58.6376H58.1718C57.3898 58.6376 56.7559 59.2715 56.7559 60.0535C56.7559 60.8355 57.3898 61.4694 58.1718 61.4694Z" fill="#7E00A7"/>
<path d="M44.6894 58.6376C43.9073 58.6376 43.2734 59.2715 43.2734 60.0535C43.2734 60.8355 43.9073 61.4694 44.6894 61.4694H53.8652C54.6472 61.4694 55.2812 60.8355 55.2812 60.0535C55.2812 59.2715 54.6472 58.6376 53.8652 58.6376H44.6894Z" fill="#7E00A7"/>
<path d="M58.1718 70.177H58.6423C59.4243 70.177 60.0582 69.543 60.0582 68.761C60.0582 67.979 59.4243 67.3451 58.6423 67.3451H58.1718C57.3898 67.3451 56.7559 67.979 56.7559 68.761C56.7559 69.543 57.3898 70.177 58.1718 70.177Z" fill="#7E00A7"/>
<path d="M53.8652 67.3451H44.6894C43.9073 67.3451 43.2734 67.979 43.2734 68.761C43.2734 69.543 43.9073 70.177 44.6894 70.177H53.8652C54.6472 70.177 55.2812 69.543 55.2812 68.761C55.2812 67.979 54.6472 67.3451 53.8652 67.3451Z" fill="#7E00A7"/>
<path d="M58.1718 78.8846H58.6423C59.4243 78.8846 60.0582 78.2507 60.0582 77.4687C60.0582 76.6866 59.4243 76.0527 58.6423 76.0527H58.1718C57.3898 76.0527 56.7559 76.6866 56.7559 77.4687C56.7559 78.2507 57.3898 78.8846 58.1718 78.8846Z" fill="#7E00A7"/>
<path d="M53.8652 76.0527H44.6894C43.9073 76.0527 43.2734 76.6866 43.2734 77.4687C43.2734 78.2507 43.9073 78.8846 44.6894 78.8846H53.8652C54.6472 78.8846 55.2812 78.2507 55.2812 77.4687C55.2812 76.6866 54.6472 76.0527 53.8652 76.0527Z" fill="#7E00A7"/>
<path d="M58.1718 87.5922H58.6423C59.4243 87.5922 60.0582 86.9583 60.0582 86.1763C60.0582 85.3943 59.4243 84.7604 58.6423 84.7604H58.1718C57.3898 84.7604 56.7559 85.3943 56.7559 86.1763C56.7559 86.9583 57.3898 87.5922 58.1718 87.5922Z" fill="#7E00A7"/>
<path d="M53.8652 84.7604H44.6894C43.9073 84.7604 43.2734 85.3943 43.2734 86.1763C43.2734 86.9583 43.9073 87.5922 44.6894 87.5922H53.8652C54.6472 87.5922 55.2812 86.9583 55.2812 86.1763C55.2812 85.3943 54.6472 84.7604 53.8652 84.7604Z" fill="#7E00A7"/>
<path d="M36.7637 70.177C37.1393 70.177 37.4995 70.0278 37.765 69.7623L41.5877 65.9395C42.1407 65.3865 42.1407 64.49 41.5877 63.9371C41.0347 63.3841 40.1383 63.3841 39.5853 63.9371L36.7638 66.7586L36.3605 66.3553C35.8076 65.8023 34.911 65.8022 34.3581 66.3552C33.8052 66.9082 33.8051 67.8047 34.358 68.3576L35.7626 69.7623C36.0281 70.0277 36.3882 70.177 36.7637 70.177Z" fill="#7E00A7"/>
<path d="M35.2682 75.5572L34.358 76.4674C33.8051 77.0204 33.8051 77.9169 34.3581 78.4698C34.6346 78.7463 34.9969 78.8845 35.3593 78.8845C35.7217 78.8845 36.0841 78.7463 36.3606 78.4697L37.2707 77.5597L38.1808 78.4697C38.4572 78.7463 38.8196 78.8845 39.182 78.8845C39.5444 78.8845 39.9068 78.7463 40.1832 78.4697C40.7362 77.9168 40.7362 77.0203 40.1832 76.4674L39.2732 75.5572L40.1833 74.6469C40.7362 74.094 40.7362 73.1975 40.1832 72.6445C39.6303 72.0916 38.7338 72.0916 38.1808 72.6446L37.2707 73.5548L36.3604 72.6446C35.8075 72.0916 34.911 72.0916 34.3581 72.6446C33.8052 73.1976 33.8051 74.0941 34.3581 74.6469L35.2682 75.5572Z" fill="#7E00A7"/>
<path d="M39.5853 81.352L36.7638 84.1735L36.3604 83.7702C35.8074 83.2172 34.911 83.2172 34.3581 83.7702C33.8051 84.3231 33.8051 85.2196 34.3581 85.7726L35.7627 87.1772C36.0282 87.4428 36.3884 87.5919 36.7639 87.5919C37.1395 87.5919 37.4996 87.4427 37.7652 87.1772L41.5879 83.3543C42.1408 82.8013 42.1408 81.9048 41.5878 81.3519C41.0347 80.799 40.1382 80.799 39.5853 81.352Z" fill="#7E00A7"/>
<defs>
<filter id="filter0_d_2796_6432" x="0" y="0" width="94" height="138" filterUnits="userSpaceOnUse" color-interpolation-filters="sRGB">
<feFlood flood-opacity="0" result="BackgroundImageFix"/>
<feColorMatrix in="SourceAlpha" type="matrix" values="0 0 0 0 0 0 0 0 0 0 0 0 0 0 0 0 0 0 127 0" result="hardAlpha"/>
<feOffset dy="1"/>
<feGaussianBlur stdDeviation="1.5"/>
<feComposite in2="hardAlpha" operator="out"/>
<feColorMatrix type="matrix" values="0 0 0 0 0 0 0 0 0 0 0 0 0 0 0 0 0 0 0.25 0"/>
<feBlend mode="normal" in2="BackgroundImageFix" result="effect1_dropShadow_2796_6432"/>
<feBlend mode="normal" in="SourceGraphic" in2="effect1_dropShadow_2796_6432" result="shape"/>
</filter>
</defs>
</svg>
