<svg width="54" height="51" viewBox="0 0 54 51" fill="none" xmlns="http://www.w3.org/2000/svg">
<g filter="url(#filter0_d_2798_6433)">
<ellipse cx="27" cy="24.5" rx="23" ry="21.5" fill="white"/>
</g>
<path d="M39.1333 14.6208C39.0419 14.5312 38.917 14.4807 38.7866 14.4807H34.6608V13.7914C34.6881 13.7329 34.7035 13.6681 34.7035 13.5998C34.7035 13.5314 34.6881 13.4667 34.6608 13.4081V11.595C34.6608 11.3359 34.443 11.126 34.1744 11.126H19.7779C19.5093 11.126 19.2915 11.3359 19.2915 11.595V14.4807H15.213C15.0825 14.4807 14.9576 14.5312 14.8662 14.6208C14.7747 14.7105 14.7245 14.8318 14.7266 14.9575C14.7662 17.2572 15.2789 19.4151 16.1702 21.0336C17.1004 22.7226 18.3563 23.6651 19.7133 23.6969C20.5198 26.0212 22.4835 27.8214 24.9308 28.4833V32.0128C23.9298 32.5587 23.215 33.4923 23.0281 34.5978H19.7842C19.5156 34.5978 19.2978 34.8078 19.2978 35.0669V37.405C19.2978 37.6639 19.5156 37.874 19.7842 37.874H34.2153C34.4839 37.874 34.7017 37.6639 34.7017 37.405V35.0669C34.7017 34.8078 34.4839 34.5978 34.2153 34.5978H30.9715C30.7845 33.4923 30.0697 32.5587 29.0687 32.0128V28.4893C31.5308 27.8302 33.5003 26.0181 34.3094 23.6964C35.6575 23.6545 36.9045 22.713 37.8293 21.0336C38.7207 19.4151 39.2333 17.2573 39.2729 14.9575C39.2751 14.8318 39.2248 14.7104 39.1333 14.6208ZM19.2978 22.7004C18.4657 22.4946 17.6742 21.7645 17.0294 20.5937C16.2696 19.214 15.8083 17.3913 15.7147 15.4187H19.2915V21.725C19.2915 21.7493 19.2941 21.7731 19.2978 21.7965V22.7004H19.2978ZM33.7289 35.5359V36.9359H20.2706V35.5359H23.467H30.5325H33.7289ZM29.9819 34.5978H24.0176C24.309 33.3512 25.5291 32.4329 26.9998 32.4329C28.4704 32.4329 29.6906 33.3512 29.9819 34.5978ZM25.9036 31.6323V28.6821C26.2658 28.7326 26.636 28.7588 27.0122 28.7588C27.38 28.7588 27.7417 28.7331 28.0959 28.6848V31.6322C27.7476 31.5432 27.3802 31.4948 26.9997 31.4948C26.6193 31.4948 26.2519 31.5433 25.9036 31.6323ZM33.7289 21.6088C33.581 25.0583 30.6251 27.8207 27.0122 27.8207C23.4436 27.8207 20.4951 25.1318 20.2997 21.6993C20.297 21.6527 20.2862 21.6085 20.2706 21.5667V14.9497C20.2706 14.9251 20.2681 14.9012 20.2643 14.8777V12.064H33.688V13.1307H23.968C23.6993 13.1307 23.4816 13.3407 23.4816 13.5998C23.4816 13.8588 23.6993 14.0688 23.968 14.0688H33.688V20.5426C33.688 20.5603 33.689 20.578 33.6911 20.5956C33.7099 20.7552 33.7221 20.9154 33.7289 21.0746V21.6088ZM36.9702 20.5937C36.3253 21.7645 35.5338 22.4946 34.7017 22.7004V21.6249C34.7055 21.5296 34.708 21.4339 34.708 21.3378C34.708 21.2445 34.7054 21.1506 34.7017 21.0565V15.4187H38.2848C38.1912 17.3913 37.73 19.214 36.9702 20.5937Z" fill="#7E00A7"/>
<path d="M30.4823 18.4029L28.3768 18.1079L27.4353 16.2682C27.3534 16.1081 27.1843 16.0067 26.9992 16.0067C26.814 16.0067 26.6449 16.1081 26.563 16.2682L25.6214 18.1079L23.516 18.4029C23.3328 18.4286 23.1806 18.5523 23.1234 18.7221C23.0662 18.8919 23.1139 19.0783 23.2465 19.2029L24.7699 20.6348L24.4103 22.6568C24.379 22.8328 24.454 23.0106 24.6038 23.1156C24.7535 23.2204 24.9521 23.2344 25.116 23.1513L26.9992 22.1966L28.8823 23.1513C28.9534 23.1874 29.0311 23.2052 29.1086 23.2052C29.2095 23.2052 29.3098 23.175 29.3945 23.1156C29.5444 23.0107 29.6193 22.8328 29.588 22.6569L29.2284 20.6349L30.7518 19.2029C30.8844 19.0783 30.9321 18.8919 30.8749 18.7221C30.8177 18.5523 30.6655 18.4286 30.4823 18.4029ZM28.3663 20.1352C28.2516 20.243 28.1993 20.3982 28.2264 20.5504L28.4626 21.8788L27.2255 21.2516C27.1546 21.2157 27.0769 21.1977 26.9992 21.1977C26.9214 21.1977 26.8437 21.2157 26.7728 21.2516L25.5357 21.8788L25.7719 20.5504C25.799 20.3982 25.7467 20.243 25.632 20.1352L24.6313 19.1945L26.0144 19.0007C26.1729 18.9785 26.3098 18.8826 26.3806 18.7441L26.9992 17.5356L27.6177 18.7441C27.6885 18.8826 27.8254 18.9785 27.9839 19.0007L29.367 19.1945L28.3663 20.1352Z" fill="#7E00A7"/>
<defs>
<filter id="filter0_d_2798_6433" x="0" y="0" width="54" height="51" filterUnits="userSpaceOnUse" color-interpolation-filters="sRGB">
<feFlood flood-opacity="0" result="BackgroundImageFix"/>
<feColorMatrix in="SourceAlpha" type="matrix" values="0 0 0 0 0 0 0 0 0 0 0 0 0 0 0 0 0 0 127 0" result="hardAlpha"/>
<feOffset dy="1"/>
<feGaussianBlur stdDeviation="2"/>
<feComposite in2="hardAlpha" operator="out"/>
<feColorMatrix type="matrix" values="0 0 0 0 0 0 0 0 0 0 0 0 0 0 0 0 0 0 0.25 0"/>
<feBlend mode="normal" in2="BackgroundImageFix" result="effect1_dropShadow_2798_6433"/>
<feBlend mode="normal" in="SourceGraphic" in2="effect1_dropShadow_2798_6433" result="shape"/>
</filter>
</defs>
</svg>
