<svg width="94" height="138" viewBox="0 0 94 138" fill="none" xmlns="http://www.w3.org/2000/svg">
<g filter="url(#filter0_d_2796_6430)">
<rect x="3" y="2" width="88" height="132" rx="5" fill="#FBF1FF"/>
</g>
<g clip-path="url(#clip0_2796_6430)">
<path d="M80 68.5C80 77.1195 76.5759 85.386 70.481 91.481C64.386 97.5759 56.1195 101 47.5 101C38.8805 101 30.614 97.5759 24.519 91.481C18.4241 85.386 15 77.1195 15 68.5C15 67.7817 15.2853 67.0928 15.7933 66.5849C16.3012 66.077 16.99 65.7917 17.7083 65.7917C18.4266 65.7917 19.1155 66.077 19.6234 66.5849C20.1313 67.0928 20.4167 67.7817 20.4167 68.5C20.4167 73.8566 22.0051 79.0929 24.981 83.5467C27.957 88.0005 32.1868 91.4719 37.1357 93.5217C42.0845 95.5716 47.53 96.108 52.7837 95.0629C58.0373 94.0179 62.8631 91.4385 66.6508 87.6508C70.4385 83.8631 73.0179 79.0373 74.0629 73.7837C75.108 68.53 74.5716 63.0845 72.5217 58.1357C70.4719 53.1868 67.0005 48.957 62.5467 45.981C58.0929 43.0051 52.8566 41.4167 47.5 41.4167C46.7817 41.4167 46.0928 41.1313 45.5849 40.6234C45.077 40.1155 44.7917 39.4266 44.7917 38.7083C44.7917 37.99 45.077 37.3012 45.5849 36.7933C46.0928 36.2853 46.7817 36 47.5 36C56.1167 36.0093 64.3778 39.4364 70.4707 45.5293C76.5636 51.6222 79.9907 59.8833 80 68.5ZM42.8335 65.7917H36.6667C35.9484 65.7917 35.2595 66.077 34.7516 66.5849C34.2437 67.0928 33.9583 67.7817 33.9583 68.5C33.9583 69.2183 34.2437 69.9072 34.7516 70.4151C35.2595 70.923 35.9484 71.2083 36.6667 71.2083H42.8335C43.2471 71.9267 43.8206 72.5401 44.5093 73.0012C45.1981 73.4624 45.9838 73.7587 46.8056 73.8674C47.6273 73.9761 48.463 73.8941 49.248 73.6279C50.033 73.3617 50.7461 72.9184 51.3323 72.3323C51.9184 71.7461 52.3617 71.033 52.6279 70.248C52.8941 69.463 52.9761 68.6273 52.8674 67.8056C52.7587 66.9838 52.4624 66.1981 52.0012 65.5093C51.5401 64.8206 50.9267 64.2471 50.2083 63.8335V54.9583C50.2083 54.24 49.923 53.5512 49.4151 53.0433C48.9072 52.5353 48.2183 52.25 47.5 52.25C46.7817 52.25 46.0928 52.5353 45.5849 53.0433C45.077 53.5512 44.7917 54.24 44.7917 54.9583V63.8335C43.9803 64.3056 43.3056 64.9803 42.8335 65.7917ZM19.9481 59.79C20.4838 59.79 21.0074 59.6312 21.4528 59.3336C21.8982 59.036 22.2453 58.613 22.4503 58.1181C22.6553 57.6232 22.7089 57.0787 22.6044 56.5533C22.4999 56.0279 22.242 55.5454 21.8632 55.1666C21.4844 54.7878 21.0019 54.5299 20.4765 54.4254C19.9511 54.3209 19.4066 54.3745 18.9117 54.5795C18.4168 54.7845 17.9938 55.1316 17.6962 55.577C17.3986 56.0224 17.2398 56.546 17.2398 57.0817C17.2398 57.8 17.5251 58.4888 18.033 58.9967C18.541 59.5047 19.2298 59.79 19.9481 59.79ZM26.4319 50.1023C26.9675 50.1023 27.4912 49.9435 27.9365 49.6459C28.3819 49.3483 28.7291 48.9253 28.934 48.4304C29.139 47.9355 29.1927 47.391 29.0882 46.8656C28.9837 46.3402 28.7257 45.8576 28.347 45.4789C27.9682 45.1001 27.4856 44.8422 26.9602 44.7377C26.4349 44.6332 25.8903 44.6868 25.3954 44.8918C24.9006 45.0968 24.4776 45.4439 24.18 45.8893C23.8824 46.3347 23.7235 46.8583 23.7235 47.394C23.7235 48.1123 24.0089 48.8011 24.5168 49.309C25.0247 49.8169 25.7136 50.1023 26.4319 50.1023ZM36.0681 43.6944C36.6038 43.6944 37.1274 43.5355 37.5728 43.2379C38.0182 42.9403 38.3653 42.5174 38.5703 42.0225C38.7753 41.5276 38.8289 40.983 38.7244 40.4577C38.6199 39.9323 38.362 39.4497 37.9832 39.071C37.6044 38.6922 37.1219 38.4342 36.5965 38.3297C36.0711 38.2252 35.5266 38.2789 35.0317 38.4839C34.5368 38.6889 34.1138 39.036 33.8162 39.4814C33.5186 39.9268 33.3598 40.4504 33.3598 40.986C33.3598 41.7043 33.6451 42.3932 34.153 42.9011C34.661 43.409 35.3498 43.6944 36.0681 43.6944Z" fill="#7E00A7"/>
</g>
<defs>
<filter id="filter0_d_2796_6430" x="0" y="0" width="94" height="138" filterUnits="userSpaceOnUse" color-interpolation-filters="sRGB">
<feFlood flood-opacity="0" result="BackgroundImageFix"/>
<feColorMatrix in="SourceAlpha" type="matrix" values="0 0 0 0 0 0 0 0 0 0 0 0 0 0 0 0 0 0 127 0" result="hardAlpha"/>
<feOffset dy="1"/>
<feGaussianBlur stdDeviation="1.5"/>
<feComposite in2="hardAlpha" operator="out"/>
<feColorMatrix type="matrix" values="0 0 0 0 0 0 0 0 0 0 0 0 0 0 0 0 0 0 0.25 0"/>
<feBlend mode="normal" in2="BackgroundImageFix" result="effect1_dropShadow_2796_6430"/>
<feBlend mode="normal" in="SourceGraphic" in2="effect1_dropShadow_2796_6430" result="shape"/>
</filter>
<clipPath id="clip0_2796_6430">
<rect width="65" height="65" fill="white" transform="translate(15 36)"/>
</clipPath>
</defs>
</svg>
