<svg width="39" height="39" viewBox="0 0 39 39" fill="none" xmlns="http://www.w3.org/2000/svg">
<path d="M14.625 19.5C14.625 21.7436 12.8062 23.5625 10.5625 23.5625C8.31885 23.5625 6.5 21.7436 6.5 19.5C6.5 17.2564 8.31885 15.4375 10.5625 15.4375C12.8062 15.4375 14.625 17.2564 14.625 19.5Z" stroke="#1C274C" stroke-width="1.75"/>
<path d="M22.75 10.5625L14.625 16.25" stroke="#1C274C" stroke-width="1.75" stroke-linecap="round"/>
<path d="M22.75 29.4375L14.625 23.75" stroke="#1C274C" stroke-width="1.75" stroke-linecap="round"/>
<path d="M30.875 30.0625C30.875 32.3061 29.0561 34.125 26.8125 34.125C24.5689 34.125 22.75 32.3061 22.75 30.0625C22.75 27.8189 24.5689 26 26.8125 26C29.0561 26 30.875 27.8189 30.875 30.0625Z" stroke="#1C274C" stroke-width="1.75"/>
<path d="M30.875 8.9375C30.875 11.1812 29.0561 13 26.8125 13C24.5689 13 22.75 11.1812 22.75 8.9375C22.75 6.69385 24.5689 4.875 26.8125 4.875C29.0561 4.875 30.875 6.69385 30.875 8.9375Z" stroke="#1C274C" stroke-width="1.75"/>
</svg>
