<svg width="28" height="28" viewBox="0 0 28 28" fill="none" xmlns="http://www.w3.org/2000/svg">
<g clip-path="url(#clip0_1409_413)">
<path fill-rule="evenodd" clip-rule="evenodd" d="M14 26.25C7.2345 26.25 1.75 20.7638 1.75 14C1.75 7.23625 7.2345 1.75 14 1.75C20.7655 1.75 26.25 7.23625 26.25 14C26.25 20.7638 20.7655 26.25 14 26.25ZM14 0C6.26762 0 0 6.265 0 14C0 21.735 6.26762 28 14 28C21.7324 28 28 21.735 28 14C28 6.265 21.7324 0 14 0ZM19.0024 8.99503C18.6576 8.65378 18.1002 8.65378 17.7555 8.99503L13.9948 12.7575L10.2882 9.04747C9.94612 8.70622 9.39137 8.70622 9.05099 9.04747C8.70887 9.38872 8.70887 9.94876 9.05099 10.29L12.7575 13.9912L9.02477 17.7275C8.6809 18.0688 8.6809 18.6287 9.02477 18.9787C9.36952 19.3199 9.92774 19.3199 10.2725 18.9787L14.0052 15.2425L17.7118 18.9525C18.0539 19.2938 18.6086 19.2938 18.9499 18.9525C19.292 18.6113 19.292 18.0512 18.9499 17.71L15.2425 14.0088L19.0024 10.2462C19.3462 9.89622 19.3462 9.34503 19.0024 8.99503Z" fill="#FF0B0B"/>
</g>
<defs>
<clipPath id="clip0_1409_413">
<rect width="28" height="28" fill="white"/>
</clipPath>
</defs>
</svg>
