<svg width="20" height="19" viewBox="0 0 20 19" fill="none" xmlns="http://www.w3.org/2000/svg">
<path fill-rule="evenodd" clip-rule="evenodd" d="M18.2206 9.26471C18.2206 13.4363 14.5826 16.9853 9.88235 16.9853C5.18206 16.9853 1.54412 13.4363 1.54412 9.26471C1.54412 5.09312 5.18206 1.54412 9.88235 1.54412C14.5826 1.54412 18.2206 5.09312 18.2206 9.26471ZM19.7647 9.26471C19.7647 14.3813 15.3399 18.5294 9.88235 18.5294C4.42482 18.5294 0 14.3813 0 9.26471C0 4.14812 4.42482 0 9.88235 0C15.3399 0 19.7647 4.14812 19.7647 9.26471ZM10.6594 3.213L10.6421 12.2306L9.09794 12.2282L9.11524 3.21053L10.6594 3.213ZM10.6791 14.6382C10.6791 14.4253 10.5945 14.2211 10.4439 14.0705C10.2934 13.9199 10.0891 13.8353 9.87618 13.8353C9.66322 13.8353 9.45899 13.9199 9.30841 14.0705C9.15783 14.2211 9.07324 14.4253 9.07324 14.6382C9.07324 14.8512 9.15783 15.0554 9.30841 15.206C9.45899 15.3566 9.66322 15.4412 9.87618 15.4412C10.0891 15.4412 10.2934 15.3566 10.4439 15.206C10.5945 15.0554 10.6791 14.8512 10.6791 14.6382Z" fill="#7E00A7"/>
</svg>
