<svg width="59" height="62" viewBox="0 0 59 62" fill="none" xmlns="http://www.w3.org/2000/svg">
<g clip-path="url(#clip0_973_426)">
<path d="M29.5 62C45.7924 62 59 48.1208 59 31C59 13.8792 45.7924 0 29.5 0C13.2076 0 0 13.8792 0 31C0 48.1208 13.2076 62 29.5 62Z" fill="white"/>
<path d="M9.19824 53.5055C14.4943 58.7779 21.6022 62 29.4998 62C37.3975 62 44.5053 58.7779 49.8014 53.5055H9.19824Z" fill="white"/>
<path d="M29.4997 34.9055C31.1931 34.9055 32.5659 32.4357 32.5659 29.389C32.5659 26.3423 31.1931 23.8724 29.4997 23.8724C27.8064 23.8724 26.4336 26.3423 26.4336 29.389C26.4336 32.4357 27.8064 34.9055 29.4997 34.9055Z" fill="#F9B54C"/>
<path d="M40.3249 47.8425C40.8359 45.6457 41.1611 43.4488 41.1611 41.3984C41.1611 32.7087 35.958 30.0236 29.5005 30.0236C23.0894 30.0236 17.8398 32.6598 17.8398 41.3984C17.8398 43.4488 18.1186 45.6457 18.6761 47.8425H40.3249Z" fill="#7E00A7"/>
<path d="M32.5197 29.0961C32.5197 29.0961 30.7543 30.2189 29.5 30.2189L31.126 33.9291L33.4488 30.463L32.5197 29.0961Z" fill="white"/>
<path d="M26.4799 29.0961C26.4799 29.0961 28.2453 30.2189 29.4996 30.2189L27.8736 33.9291L25.5508 30.463L26.4799 29.0961Z" fill="white"/>
<path d="M38.0012 13.5717C38.0012 18.7465 34.1917 25.9717 29.4996 25.9717C24.8075 25.9717 20.998 18.7465 20.998 13.5717C20.998 8.39685 24.8075 6.15118 29.4996 6.15118C34.1917 6.15118 38.0012 8.39685 38.0012 13.5717Z" fill="#324A5E"/>
<path d="M35.8179 18.7465C35.8179 24.0189 32.984 28.2661 29.4998 28.2661C26.0155 28.2661 23.1816 24.0189 23.1816 18.7465C23.1816 15.6221 24.2037 12.8394 25.7368 11.0819C26.8517 12.2535 28.199 13.3764 29.732 14.3528C31.7761 15.6709 33.8202 16.5984 35.6785 17.1354C35.7714 17.6724 35.8179 18.2095 35.8179 18.7465Z" fill="white"/>
<path d="M40.8355 53.4079H18.1646C17.3748 53.4079 16.678 53.0173 16.5851 52.4803L13.7512 37.8346C13.6118 37.0535 14.2622 36.4189 15.2378 36.4189H43.7622C44.7378 36.4189 45.3882 37.0535 45.2488 37.8346L42.415 52.4803C42.3221 52.9685 41.6252 53.4079 40.8355 53.4079Z" fill="#324A5E"/>
<path d="M29.4999 45.7921C31.4242 45.7921 32.9841 45.0927 32.9841 44.2299C32.9841 43.3671 31.4242 42.6677 29.4999 42.6677C27.5756 42.6677 26.0156 43.3671 26.0156 44.2299C26.0156 45.0927 27.5756 45.7921 29.4999 45.7921Z" fill="#2B3B4E"/>
</g>
<defs>
<clipPath id="clip0_973_426">
<rect width="59" height="62" fill="white"/>
</clipPath>
</defs>
</svg>
