<svg width="31" height="31" viewBox="0 0 31 31" fill="none" xmlns="http://www.w3.org/2000/svg">
<path fill-rule="evenodd" clip-rule="evenodd" d="M15.5 1.6145C14.965 1.6145 14.5313 2.04823 14.5313 2.58325V16.7562L12.3605 14.2236C12.0124 13.8174 11.4008 13.7704 10.9946 14.1186C10.5883 14.4667 10.5413 15.0783 10.8895 15.4845L14.7645 20.0054C14.9485 20.2201 15.2173 20.3437 15.5 20.3437C15.7828 20.3437 16.0516 20.2201 16.2355 20.0054L20.1105 15.4845C20.4587 15.0783 20.4117 14.4667 20.0055 14.1186C19.5993 13.7704 18.9876 13.8174 18.6395 14.2236L16.4688 16.7562V2.58325C16.4688 2.04823 16.035 1.6145 15.5 1.6145Z" fill="#7E00A7"/>
<path d="M18.4069 11.625V12.1136C19.3545 11.7797 20.4493 11.9468 21.2669 12.6476C22.4856 13.6922 22.6268 15.5269 21.5822 16.7456L17.7072 21.2664C17.155 21.9105 16.349 22.2813 15.5007 22.2813C14.6522 22.2813 13.8462 21.9105 13.294 21.2664L9.41901 16.7456C8.37444 15.5269 8.51558 13.6922 9.73424 12.6476C10.5519 11.9468 11.6468 11.7797 12.5943 12.1136V11.625H10.334C6.6806 11.625 4.85391 11.625 3.71895 12.76C2.58398 13.895 2.58398 15.7217 2.58398 19.375V20.6667C2.58398 24.32 2.58398 26.1467 3.71895 27.2817C4.85391 28.4167 6.6806 28.4167 10.334 28.4167H20.6673C24.3207 28.4167 26.1473 28.4167 27.2823 27.2817C28.4173 26.1467 28.4173 24.32 28.4173 20.6667V19.375C28.4173 15.7217 28.4173 13.895 27.2823 12.76C26.1473 11.625 24.3207 11.625 20.6673 11.625H18.4069Z" fill="#7E00A7"/>
</svg>
