<svg width="36" height="36" viewBox="0 0 36 36" fill="none" xmlns="http://www.w3.org/2000/svg">
<circle cx="18" cy="18" r="18" fill="#EFEFEF"/>
<path fill-rule="evenodd" clip-rule="evenodd" d="M12.7625 16.6377V14.8554C12.7625 11.6216 15.3313 9 18.5 9C21.6687 9 24.2375 11.6216 24.2375 14.8554V16.6377C25.1851 16.71 25.8021 16.8922 26.2531 17.3526C27 18.1149 27 19.3416 27 21.7952C27 24.2487 27 25.4755 26.2531 26.2378C25.5062 27 24.3041 27 21.9 27H15.1C12.6958 27 11.4938 27 10.7469 26.2378C10 25.4755 10 24.2487 10 21.7952C10 19.3416 10 18.1149 10.7469 17.3526C11.1979 16.8922 11.815 16.71 12.7625 16.6377ZM14.0375 14.8554C14.0375 12.3402 16.0354 10.3012 18.5 10.3012C20.9646 10.3012 22.9625 12.3402 22.9625 14.8554V16.5935C22.637 16.5904 22.2838 16.5904 21.9 16.5904H15.1C14.7162 16.5904 14.3631 16.5904 14.0375 16.5935V14.8554ZM18.5 19.4096C18.8521 19.4096 19.1375 19.7009 19.1375 20.0602V23.5301C19.1375 23.8894 18.8521 24.1807 18.5 24.1807C18.1479 24.1807 17.8625 23.8894 17.8625 23.5301V20.0602C17.8625 19.7009 18.1479 19.4096 18.5 19.4096Z" fill="#6E727F"/>
</svg>
