<svg width="16" height="17" viewBox="0 0 16 17" fill="none" xmlns="http://www.w3.org/2000/svg">
<path fill-rule="evenodd" clip-rule="evenodd" d="M8 1.22892C5.68041 1.22892 3.8 3.15463 3.8 5.53012V7.17162C4.10641 7.16867 4.43879 7.16867 4.8 7.16867H11.2C13.4627 7.16867 14.5941 7.16867 15.297 7.88857C16 8.60847 16 9.76709 16 12.0843C16 14.4016 16 15.5602 15.297 16.2801C14.5941 17 13.4627 17 11.2 17H4.8C2.53726 17 1.40589 17 0.702944 16.2801C0 15.5602 0 14.4016 0 12.0843C0 9.76709 0 8.60847 0.702944 7.88857C1.12745 7.45378 1.7082 7.28165 2.6 7.21341V5.53012C2.6 2.47592 5.01766 0 8 0C10.517 0 12.6304 1.763 13.2298 4.14805C13.3124 4.47669 13.1193 4.81168 12.7983 4.89627C12.4774 4.98085 12.1503 4.78301 12.0677 4.45436C11.6014 2.59909 9.95624 1.22892 8 1.22892ZM8.6 10.4458C8.6 10.1064 8.33136 9.83133 8 9.83133C7.66864 9.83133 7.4 10.1064 7.4 10.4458V13.7229C7.4 14.0622 7.66864 14.3373 8 14.3373C8.33136 14.3373 8.6 14.0622 8.6 13.7229V10.4458Z" fill="#7E00A7"/>
</svg>
