<svg width="19" height="26" viewBox="0 0 19 26" fill="none" xmlns="http://www.w3.org/2000/svg">
<path fill-rule="evenodd" clip-rule="evenodd" d="M11.5151 4.33333C11.5151 1.94009 13.1907 0 15.2576 0C17.3244 0 19 1.94009 19 4.33333C19 6.72656 17.3244 8.66667 15.2576 8.66667C14.2139 8.66667 13.2707 8.17175 12.5926 7.37551L7.4119 11.4783C7.45973 11.7552 7.48488 12.0412 7.48488 12.3334C7.48488 12.9119 7.38653 13.4649 7.20836 13.9703L12.889 18.3115C13.5338 17.7009 14.3587 17.3333 15.2576 17.3333C17.3244 17.3333 19 19.2734 19 21.6667C19 24.0599 17.3244 26 15.2576 26C13.1907 26 11.5151 24.0599 11.5151 21.6667C11.5151 21.0399 11.6305 20.4431 11.8378 19.9044L6.20302 15.5983C5.54572 16.2627 4.68473 16.6667 3.74242 16.6667C1.67554 16.6667 0 14.7265 0 12.3334C0 9.9401 1.67554 8 3.74242 8C4.93095 8 5.98895 8.64143 6.67397 9.63973L11.6949 5.66335C11.5782 5.24367 11.5151 4.79648 11.5151 4.33333Z" fill="#7E00A7"/>
</svg>
